<?xml version="1.0" encoding="UTF-8"?>
<svg version="1.1" viewBox="20 700 1500 10" width="174" height="60
" xmlns="http://www.w3.org/2000/svg">
<path transform="translate(0)" d="m0 0h1600v1336h-1600v-1336z" fill="#FEFEFE"/>
<path transform="translate(835 423)" d="m0 0c3.55 2.25 7.21 4.11 11 5.95 9.89 4.86 19.5 10.2 29.1 15.6 4.8 2.7 9.62 5.36 14.5 7.98 5.04 2.75 10.1 5.52 15 8.4 2.44 1.38 4.86 2.65 7.37 3.88 2.7 1.32 5.24 2.76 7.77 4.38 4.3 2.72 8.71 5.22 13.2 7.68 0.79 0.44 1.58 0.88 2.4 1.33 5.51 3.03 11.1 5.93 16.7 8.67 1.87 0.94 3.75 1.87 5.62 2.81l2.54 1.27c0.61 0.31 1.21 0.61 1.84 0.92v2c0.75 0.22 1.51 0.44 2.29 0.67 4.37 2.15 5.54 5.61 7.54 9.89 1.89 5.57 1.63 10.6 1.17 16.4 0.09 1.92 0.09 1.92 0.18 3.88-2.03 5.34-7.22 7.64-12.2 10.1h-2l-1 2c-2.57 0.63-2.57 0.63-5 1v2c-0.57 0.11-1.14 0.22-1.72 0.33-0.73 0.16-1.47 0.32-2.22 0.48-0.73 0.15-1.46 0.3-2.22 0.46-0.61 0.24-1.22 0.48-1.84 0.73l-1 3c-1.64 1.06-1.64 1.06-3.69 2-0.72 0.34-1.44 0.67-2.18 1.02-0.7 0.32-1.41 0.65-2.13 0.98-1.67 0.87-1.67 0.87-3.38 1.75-2.62 1.25-2.62 1.25-4.62 1.25v2c-1.13 0.56-2.26 1.12-3.42 1.7-10.7 5.36-21.4 10.8-31.6 17.1-6.89 4.18-6.89 4.18-9.95 4.18v2c-2.97 0.99-5.94 1.98-9 3v2c-16 8-16 8-18.2 9-1.99 0.87-1.99 0.87-2.82 3-2 0.68-4 1.35-6 2l-2 2c-1.46 0.79-2.94 1.53-4.44 2.25-5.63 2.76-11.1 5.73-16.6 8.75-0.92 0.51-1.85 1.02-2.81 1.54-6.65 3.64-13.3 7.29-19.9 11-0.71 0.41-1.43 0.81-2.16 1.23-1.1 0.63-1.1 0.63-2.22 1.27-1.84 0.92-1.84 0.92-3.84 0.92-0.06 1.63-0.1 3.25-0.13 4.88-0.02 0.9-0.04 1.81-0.07 2.74-0.05 2.57-0.05 2.57 2.2 4.38 4.5-0.3 7.22-1.66 11-4 2.75-1.52 5.51-3.01 8.28-4.5 1.82-1 3.61-2.05 5.38-3.14 2.48-1.44 4.52-1.96 7.34-2.36v-3c0.61-0.18 1.23-0.36 1.86-0.55 0.81-0.25 1.62-0.5 2.45-0.76 0.8-0.25 1.6-0.49 2.42-0.74 2.4-1 3.53-2.07 5.27-3.95 1.98-1.04 3.98-2.03 6-3 1.77-0.97 3.54-1.95 5.31-2.94 4.79-2.63 9.65-4.94 14.7-7.06v-2c1.21-0.43 2.43-0.87 3.68-1.31 3.37-1.26 6.26-2.79 9.32-4.69 0.9-0.35 1.81-0.7 2.75-1.06 2.41-0.72 2.41-0.72 3.25-2.94 1.96-0.84 3.96-1.46 5.99-2.12 2.22-0.97 3.35-2.13 5.01-3.88 1.97-1.05 3.97-2.05 6-3 5.11-2.5 10-5.09 14.8-8.19 3.21-2.06 6.32-3.97 9.85-5.43 3.61-1.5 6.99-2.97 9.7-5.85 1.84-1.74 3.47-2.5 5.8-3.47 5.58-2.38 11-4.81 16-8.18 4.13-2.75 7.95-4.05 12.8-4.88 1.56 1.63 1.56 1.63 3 4-0.32 3.25-0.32 3.25-1 6l-4 1v2c-5.63 3.09-11.3 6.13-17 9-1.68 0.99-3.34 1.99-5 3-3.2 1.9-6.28 3.72-9.75 5.06-2.28 0.78-2.28 0.78-3.69 2.38-2.22 2.22-4.73 3.22-7.56 4.56-1.01 0.55-1.01 0.55-2.03 1.11-0.69 0.38-1.39 0.75-2.1 1.14-0.64 0.36-1.28 0.71-1.94 1.08-2.36 0.82-3.61 0.48-5.93-0.33l1 3-1 2c0.6 2.35 1.27 4.69 2 7 3.69 0.95 6.3 0.95 10 0v-2c2.62-1.34 5.24-2.67 7.87-4 0.75-0.38 1.49-0.76 2.26-1.16 0.72-0.36 1.43-0.72 2.17-1.09 0.66-0.33 1.32-0.67 2-1.02 1.7-0.73 1.7-0.73 3.7-0.73v-2c1.15-0.58 2.31-1.15 3.5-1.75 0.72-0.36 1.44-0.73 2.19-1.1 1.52-0.76 3.05-1.5 4.58-2.24 0.72-0.34 1.43-0.68 2.16-1.03 0.66-0.32 1.32-0.63 2-0.95 1.75-0.85 1.75-0.85 2.57-2.93 1.96-0.74 1.96-0.74 4.37-1.31 0.79-0.2 1.58-0.41 2.4-0.62 2.23-0.07 2.23-0.07 3.96 1.24 1.72 2.29 2.2 3.81 2.27 6.69-2.87 3.49-6.01 5.18-10.1 7.06-3.57 1.67-6.25 3.05-8.93 5.94-1.66 0.7-3.33 1.36-5 2-1.68 0.98-3.35 1.98-5 3-1.5 0.89-3 1.76-4.5 2.63-0.74 0.42-1.47 0.85-2.22 1.28-2.43 1.16-4.64 1.67-7.28 2.09l-1 3c-1.97 1.06-3.98 2.04-6 3-2.11 1.31-4.19 2.65-6.27 4.01-1.73 0.99-1.73 0.99-3.73 0.99v8h2v2c5.26-0.45 8.58-0.94 13-4 3.79-2.19 7.6-4.33 11.4-6.44 2.98-1.64 5.88-3.36 8.75-5.18 3.19-2.02 6.42-3.75 9.82-5.38 0.65-0.36 1.3-0.73 1.97-1.1 5.31-2.91 5.31-2.91 8.9-2.84 2.13 0.94 2.13 0.94 4.13 3.94 0.18 2.88 0.18 2.88-1 6-2.81 2.06-5.87 3.5-9 5-2.46 1.45-4.89 2.93-7.32 4.44-2.14 1.25-4.27 2.35-6.5 3.44-3.49 1.72-6.76 3.67-10 5.76-2.43 1.54-4.87 3.05-7.33 4.55-0.8 0.49-1.6 0.98-2.42 1.48-2.41 1.34-4.83 2.33-7.39 3.33-0.87 0.54-1.74 1.07-2.63 1.63-2.37 1.37-2.37 1.37-5.37 1.37v13c7.99-0.45 7.99-0.45 15-4 2.31-0.69 2.31-0.69 4-1v-2c0.84-0.4 0.84-0.4 1.69-0.81 5.33-2.61 10.5-5.38 15.7-8.31 0.6-0.34 1.19-0.68 1.8-1.02 2.46-1.41 4.81-2.85 7.07-4.56 2.19-1.62 4.09-1.93 6.76-2.3v-2c2.65 0.37 3.76 0.74 5.58 2.77 3.89 6.15 2.56 14.6 1.29 21.4-1.29 4.1-3.46 7.15-6.87 9.78h-2l-1 3c-1.97 1.07-3.97 2.06-6 3-0.89 0.56-1.78 1.11-2.69 1.69-2.31 1.31-2.31 1.31-5.31 1.31l-1 3c-2.65 1.45-5.27 2.74-8 4-1.76 0.85-3.51 1.7-5.25 2.56-0.81 0.4-1.62 0.79-2.46 1.19-2.31 1.19-2.31 1.19-4.27 2.74-2.28 1.7-4.6 2.93-7.15 4.2-0.87 0.44-1.74 0.87-2.63 1.32-2.24 0.99-2.24 0.99-4.24 0.99-0.97 6.92-0.99 13.6-0.75 20.6-0.28 3.75-0.87 5.56-3.25 8.45-3.53 1.75-7.29 0.74-11.1 0.19-1.22-0.17-2.45-0.34-3.72-0.52-3.21-0.67-3.21-0.67-6.21-2.67-4.77-0.58-4.77-0.58-8.82 1.5-0.39 0.5-0.78 0.99-1.18 1.5h-2c-0.34 0.84-0.34 0.84-0.69 1.69-1.67 2.93-3.94 4.93-6.31 7.31l-1 3h-3c-0.34 1.08-0.34 1.08-0.69 2.19-1.58 3.38-3.59 5.28-6.31 7.81l-11 11c-3.5-0.12-3.5-0.12-7-1-2.39-3.3-2.39-6.78-2.63-10.8-0.11-1.76-0.11-1.76-0.23-3.55-0.04-0.89-0.09-1.78-0.14-2.7-0.8 0.42-0.8 0.42-1.61 0.84-0.71 0.36-1.42 0.72-2.14 1.1-0.7 0.36-1.4 0.72-2.11 1.09-2.14 0.97-2.14 0.97-4.26 1.48-2.84 0.74-4.62 2.66-6.88 4.49-4.24 2.4-8.49 3.85-13.2 5.16-0.92 0.41-0.92 0.41-1.85 0.84l-1 3c-6.48 3.88-13.9 3.4-21 2-6.78-2.16-14-5.95-19-11-0.85-3.22-1.13-6.26-1.15-9.58-0.01-1.34-0.01-1.34-0.02-2.7 0-1.45 0-1.45-0.01-2.92 0-1.03-0.01-2.05-0.02-3.11-0.01-2.22-0.02-4.44-0.03-6.67-0.02-3.51-0.04-7.03-0.07-10.6-0.07-10-0.13-20-0.18-30-0.03-6.12-0.07-12.2-0.12-18.4-0.02-2.33-0.03-4.67-0.04-7-0.01-3.26-0.03-6.52-0.06-9.78v-2.91c-0.05-4.8-0.17-9.01-2.3-13.4-0.99-0.33-1.98-0.66-3-1-0.42-0.45-0.83-0.91-1.25-1.37-2.59-2.41-5.48-3.33-8.75-4.63v-2c-0.93-0.12-1.86-0.25-2.82-0.37-3.18-0.63-3.18-0.63-6.18-2.63v-2l-7-2v-2c-1-0.12-1-0.12-2.02-0.25-3.97-1-7.23-2.84-10.8-4.81-1.04-0.57-1.04-0.57-2.1-1.14-1.69-0.93-3.39-1.86-5.08-2.8v-2l-8 1c-0.81 2.83-1.13 5.34-1.12 8.28-0.01 0.84-0.01 1.69-0.01 2.56 0.01 0.93 0.01 1.85 0.01 2.79v2.96c0 3.23 0.01 6.45 0.02 9.68v6.71c0.01 5.88 0.02 11.8 0.03 17.6 0.01 6.01 0.01 12 0.02 18 0.01 11.8 0.03 23.6 0.05 35.4h-2l-1 4c-2.66 1.04-3.71 1.13-6.38 0-1.3-0.77-1.3-0.77-2.62-1.56-5.89-3.39-11.9-6.44-18-9.44v-2c-0.73-0.1-1.45-0.21-2.19-0.31-3.11-0.76-5.12-1.98-7.81-3.69-2-1.01-3.99-2.02-6-3v-2c-0.61-0.19-1.21-0.39-1.83-0.59-1.2-0.39-1.2-0.39-2.42-0.78-0.79-0.26-1.58-0.51-2.39-0.78-2.23-0.8-4.27-1.75-6.36-2.85v-2c-0.66-0.06-1.32-0.12-2-0.19-5.59-1.51-9.8-4.33-13.4-8.81-2.43-4.66-2.69-8.84-2.7-14-0.01-1.22-0.02-2.43-0.02-3.68v-4.02c-0.01-1.42-0.01-2.83-0.02-4.25-0.01-3.84-0.02-7.68-0.02-11.5-0.01-2.4-0.01-4.81-0.02-7.21-0.01-7.52-0.02-15-0.02-22.6-0.01-8.68-0.02-17.4-0.05-26-0.02-6.71-0.04-13.4-0.04-20.1 0-4 0-8.01-0.02-12-0.02-3.77-0.02-7.54-0.01-11.3 0-2.03-0.01-4.06-0.03-6.1 0.04-8.8 1.07-15.8 6.39-23.1 1.48-0.49 1.48-0.49 3-1 0.49-0.99 0.49-0.99 1-2 1.98-1.04 3.98-2.03 6-3 1.5-0.82 3-1.66 4.5-2.5 2.64-1.49 5.26-2.87 8-4.19 2.62-1.06 2.62-1.06 3.5-3.31 2.17-1.17 4.33-2.26 6.56-3.31 4.71-2.29 9.24-4.63 13.6-7.55 2.53-1.56 5.19-2.81 7.85-4.14 1.92-1.09 3.84-2.19 5.75-3.31 1.04-0.62 2.08-1.23 3.16-1.86 5.15-3.05 10.3-6.12 15.4-9.26 5.72-3.49 11.6-6.68 17.5-9.77 2.56-1.34 5-2.66 7.31-4.41 2.18-1.62 4.35-2.39 6.87-3.39 2.1-1.23 4.18-2.51 6.25-3.81 14.7-9.19 14.7-9.19 17.8-9.19v-2c1.77-0.89 3.54-1.77 5.32-2.66 2.02-1.01 4.03-2.03 6.04-3.06 2.44-1.24 4.88-2.46 7.34-3.66 1.8-0.89 3.61-1.79 5.38-2.74 14.7-6.98 32.6-0.15 44.9 8.23z" fill="#101113"/>
<path transform="translate(971,575)" d="m0 0c1.73 2.31 2.03 3.57 1.84 6.45-1.11 3.37-2.45 3.99-5.53 5.67-1.35 0.76-1.35 0.76-2.73 1.53-2.84 1.49-5.71 2.92-8.58 4.35l-2 2c-1.66 0.67-3.33 1.34-5 2-1.68 0.98-3.34 1.98-5 3-1.49 0.89-2.99 1.76-4.5 2.62-0.73 0.43-1.46 0.86-2.22 1.29-2.43 1.16-4.63 1.67-7.28 2.09l-1 3c-1.97 1.06-3.98 2.04-6 3-2.11 1.3-4.19 2.65-6.27 4.01-1.73 0.99-1.73 0.99-3.73 0.99v8h2v2c5.27-0.45 8.59-0.95 13-4 3.79-2.19 7.6-4.33 11.4-6.44 2.97-1.64 5.88-3.36 8.75-5.18 3.18-2.02 6.41-3.75 9.81-5.38 0.98-0.55 0.98-0.55 1.97-1.11 5.32-2.91 5.32-2.91 8.91-2.83 2.12 0.94 2.12 0.94 4.12 3.94 0.19 2.88 0.19 2.88-1 6-2.81 2.06-5.86 3.5-9 5-2.46 1.45-4.89 2.93-7.31 4.44-2.15 1.25-4.27 2.35-6.5 3.44-3.5 1.72-6.76 3.67-10 5.76-2.42 1.54-4.87 3.05-7.33 4.55-1.19 0.73-1.19 0.73-2.42 1.48-2.4 1.34-4.83 2.33-7.39 3.33-0.87 0.54-1.73 1.07-2.62 1.62-2.38 1.38-2.38 1.38-5.38 1.38v13c8-0.45 8-0.45 15-4 2.31-0.69 2.31-0.69 4-1v-2c0.56-0.27 1.12-0.54 1.7-0.81 5.32-2.61 10.5-5.38 15.7-8.31 0.59-0.34 1.18-0.68 1.8-1.02 2.45-1.42 4.8-2.85 7.06-4.56 2.19-1.62 4.09-1.93 6.76-2.3v-2c2.66 0.37 3.77 0.74 5.59 2.77 3.89 6.15 2.56 14.6 1.28 21.4-1.28 4.11-3.46 7.16-6.87 9.79h-2l-1 3c-1.96 1.07-3.97 2.06-6 3-0.89 0.56-1.77 1.11-2.69 1.69-2.31 1.31-2.31 1.31-5.31 1.31l-1 3c-2.65 1.44-5.27 2.74-8 4-1.75 0.85-3.5 1.7-5.25 2.56-0.81 0.4-1.62 0.79-2.45 1.19-2.31 1.18-2.31 1.18-4.28 2.73-2.27 1.71-4.6 2.94-7.14 4.21-0.87 0.43-1.74 0.87-2.64 1.32-2.24 0.99-2.24 0.99-4.24 0.99-0.97 6.92-0.99 13.6-0.74 20.6-0.28 3.75-0.87 5.56-3.26 8.45-3.53 1.74-7.29 0.74-11.1 0.19-1.23-0.17-2.46-0.35-3.73-0.52-3.21-0.67-3.21-0.67-6.21-2.67-4.76-0.58-4.76-0.58-8.81 1.5-0.39 0.5-0.79 0.99-1.19 1.5h-2c-0.23 0.56-0.45 1.11-0.69 1.69-1.66 2.93-3.93 4.93-6.31 7.31l-1 3h-3c-0.23 0.72-0.45 1.44-0.69 2.19-1.58 3.38-3.58 5.28-6.31 7.81l-11 11c-3.5-0.12-3.5-0.12-7-1-2.38-3.3-2.39-6.78-2.62-10.8-0.08-1.17-0.15-2.34-0.23-3.55-0.08-1.33-0.08-1.33-0.15-2.7-0.53 0.28-1.06 0.55-1.61 0.84-0.71 0.36-1.41 0.72-2.14 1.1-1.04 0.54-1.04 0.54-2.11 1.09-2.14 0.97-2.14 0.97-4.26 1.48-2.83 0.74-4.62 2.66-6.88 4.49-1.98 1.05-3.97 2.05-6 3l-2 1c-3.01-2.01-3.63-2.84-5-6 0.91-0.58 1.82-1.15 2.75-1.75 3.22-2.05 3.22-2.05 5.31-4.5 1.94-1.75 1.94-1.75 4.69-2 0.74 0.08 1.49 0.16 2.25 0.25 0.09-0.93 0.09-0.93 0.19-1.88 0.81-2.12 0.81-2.12 3.19-3.37 2.62-0.75 2.62-0.75 5.62-0.75v-3c6.62-2 6.62-2 10-2l1 2c2.07 1.22 2.07 1.22 5 1v2l5-5 2 1c-0.99 1.32-1.98 2.64-3 4 0.72-0.91 1.44-1.82 2.19-2.75 2.35-2.82 4.79-5.13 7.81-7.25h2l1-3c1.99-0.69 3.99-1.36 6-2 1.71-1.54 1.71-1.54 3-3h2v-2c0.54-0.1 1.07-0.21 1.62-0.31 3-0.87 5.6-2.27 8.38-3.69 0.99-0.33 1.98-0.66 3-1 3.48-3.06 5.61-5.56 7-10h3v-2c0.8-0.43 1.61-0.87 2.44-1.31 2.75-1.43 2.75-1.43 3.31-4.07 0.08-0.86 0.16-1.73 0.25-2.62 0.16-0.8 0.33-1.61 0.5-2.44 0.56-2.84 1.03-5.7 1.5-8.56h-2c-1.19-3.3-2.35-6.62-3.5-9.94-0.33-0.92-0.67-1.85-1.01-2.8-2.45-7.11-4.27-14.4-1.05-21.6 1.95-4.49 2.79-8.86 3.56-13.7l-2-1c0.5-0.99 0.5-0.99 1-2l-2-1 2-3h-2c-2.21-6.39-2.21-6.39-1.25-9.19 0.41-0.6 0.83-1.19 1.25-1.81 0.5-0.99 0.5-0.99 1-2l3-6c0.29-0.72 0.58-1.44 0.88-2.19 1.12-1.81 1.12-1.81 3.24-2.56 0.62-0.08 1.24-0.16 1.88-0.25l1-5 2 1c0.73 2.31 1.4 4.65 2 7 3.7 0.95 6.3 0.95 10 0v-2c2.62-1.34 5.25-2.67 7.88-4 0.74-0.38 1.49-0.76 2.26-1.16 0.71-0.36 1.43-0.72 2.16-1.09 0.66-0.34 1.32-0.67 2-1.02 1.7-0.73 1.7-0.73 3.7-0.73v-2c1.15-0.58 2.31-1.15 3.5-1.75 0.72-0.36 1.45-0.73 2.19-1.1 1.52-0.76 3.05-1.5 4.59-2.24 0.71-0.34 1.42-0.68 2.16-1.03 0.66-0.32 1.31-0.63 1.99-0.95 1.75-0.85 1.75-0.85 2.57-2.93 7.64-2.74 7.64-2.74 11-1z" fill="#2A2B2D"/>
<path transform="translate(993,805)" d="m0 0c0.72 0.44 1.44 0.87 2.18 1.32 4.47 3 6.94 5.88 9.03 10.8 0.84 2.11 0.84 2.11 2.79 4.83 0.42 2.94 0.32 5.9 0.31 8.88 0.02 0.8 0.03 1.6 0.05 2.43 0.01 4.78-0.4 7.74-3.36 11.7-0.52 0.93-1.03 1.86-1.56 2.81-0.48 0.72-0.95 1.45-1.44 2.19h-2c-0.21 0.6-0.41 1.2-0.62 1.81-1.93 3.07-4.08 3.76-7.38 5.19-1.06 0.52-2.12 1.03-3.22 1.56-7.6 3.24-17.9 2.6-25.5-0.37-1.46-0.68-2.9-1.41-4.31-2.19-0.83-0.44-1.65-0.88-2.5-1.33-2.84-1.9-4.64-3.93-6.75-6.61-0.69-0.85-1.37-1.71-2.08-2.59-4.18-6.18-3.65-15.3-2.67-22.5 2.6-8 6.19-13.2 13.5-17.4 0.83-0.41 1.65-0.82 2.5-1.24 0.83-0.41 1.65-0.83 2.5-1.26 9.64-4.05 21.6-3.56 30.5 1.95z" fill="#2B2C2E"/>
<path transform="translate(788 808)" d="m0 0c1.06 1.44 1.06 1.44 1.06 3.44l2 1c2 3 2 3 2 6l2 1c1.84 3.68 1.7 7.94 2 12 0.1 1.19 0.1 1.19 0.21 2.41 0.27 5.77-0.97 8.82-4.21 13.6l-2 3h-2c-0.2 0.6-0.41 1.19-0.62 1.81-1.92 3.05-4.11 3.74-7.38 5.19-0.87 0.51-1.75 1.03-2.65 1.56-4.2 1.81-7.64 1.93-12.2 1.88-0.8-0.01-1.6-0.02-2.43-0.03-6.01-0.17-10.7-1.01-15.8-4.41-0.71-0.46-1.43-0.92-2.17-1.39-5.31-3.68-8.75-7.38-10.8-13.6-0.33-2.91-0.6-5.78-0.81-8.69-0.08-0.78-0.15-1.56-0.23-2.36-0.42-6.06 0.98-9.79 4.04-15 0.5-1.06 0.5-1.06 1.01-2.13 1.32-2.5 2.93-3.44 5.31-4.93 0.75-0.49 1.51-0.98 2.3-1.48 0.78-0.48 1.57-0.96 2.38-1.46 0.81-0.54 1.62-1.08 2.45-1.64 9.93-5.32 27.8-2.82 36.5 4.2z" fill="#2A2B2D"/>
<path transform="translate(722 808)" d="m0 0c7.21 8.45 9.33 15.8 9.12 26.7-0.41 4.57-1.56 8.21-3.31 12.4h-2c-0.25 0.6-0.5 1.19-0.76 1.81-2.13 3.78-5.56 6-9.24 8.19-3.5 0.88-3.5 0.88-6 1v2c-1.39-0.03-1.39-0.03-2.81-0.06-3.21-0.09-3.21-0.09-6.19 1.06-8.23 0.36-14.2-2.71-21-7-1.04-0.58-1.04-0.58-2.11-1.19-4.17-2.56-6.47-5.45-8.23-10-2.51-10.6-1.18-21.4 4.51-30.7 2.69-3.56 5.71-5.48 9.83-7.1h3v-3c12.3-1.92 25.4-2.53 35.2 5.88z" fill="#121315"/>
<path transform="translate(613,802)" d="m0 0c4.94-0.1 9.89-0.17 14.8-0.22 1.68-0.02 3.36-0.05 5.03-0.08 20.9-0.42 20.9-0.42 28.7 6.61 2.49 4.66 2.66 8.34 1.82 13.5-1.38 3.19-1.38 3.19-4 4.63-0.79 0.18-1.57 0.37-2.38 0.56 0.47 0.47 0.94 0.95 1.43 1.43 4.32 4.59 8.07 9.07 8.57 15.6-1.24 4.75-4.04 9.11-8 12-8.26 3.79-16.5 3.39-25.4 3.28-2.58-0.03-5.15-0.04-7.73-0.05-1.64 0-3.28-0.02-4.92-0.03-0.77 0-1.54-0.01-2.33-0.01-5.41-0.07-5.41-0.07-7.64-1.19 0.12-7.65 0.24-15.3 0.37-23 0.05-2.61 0.09-5.21 0.13-7.82 0.05-3.74 0.12-7.47 0.18-11.2 0.02-1.17 0.04-2.34 0.05-3.55 0.02-1.08 0.04-2.16 0.06-3.28 0.02-0.95 0.04-1.91 0.05-2.89 0.16-2.29 0.16-2.29 1.16-4.29z" fill="#101113"/>
<path transform="translate(887 801)" d="m0 0c12.4 0.07 12.4 0.07 15.6 3.27 0.16 1.48 0.25 2.98 0.32 4.47 0.04 0.9 0.08 1.8 0.12 2.72 0.04 0.95 0.08 1.89 0.12 2.87 0.05 0.95 0.09 1.9 0.13 2.88 0.11 2.35 0.21 4.7 0.31 7.06h15c-0.02-1.5-0.05-2.99-0.07-4.53l-0.06-5.85c-0.01-0.98-0.03-1.97-0.05-2.98-0.01-1.42-0.01-1.42-0.02-2.86-0.01-1.3-0.01-1.3-0.03-2.63 0.23-2.15 0.23-2.15 2.23-4.15 2.64-0.27 2.64-0.27 5.81-0.25 1.04-0.01 2.08-0.01 3.15-0.02 3.1 0.27 5.28 0.83 8.04 2.27 1.37 2.5 1.37 2.5 2 5l-1 2c-0.1 2.74-0.14 5.44-0.13 8.18 0.01 0.83 0.01 1.66 0.01 2.52 0.05 7.83 0.4 15.6 0.85 23.5 0.27 5.13 0.21 9.79-0.73 14.8-3.54 1.08-6.87 1.16-10.6 1.18-1.14 0.02-2.27 0.03-3.44 0.05-3-0.23-3-0.23-6-2.23-0.43-1.88-0.43-1.88-0.51-4.14-0.04-0.8-0.07-1.61-0.11-2.44-0.03-1.26-0.03-1.26-0.07-2.55-0.03-0.85-0.07-1.7-0.1-2.57-0.08-2.1-0.15-4.2-0.21-6.3h-14c-0.05 1.27-0.1 2.55-0.15 3.86-0.07 1.67-0.15 3.34-0.23 5.01-0.04 1.26-0.04 1.26-0.09 2.55-0.04 0.81-0.08 1.61-0.12 2.44-0.03 0.75-0.06 1.49-0.09 2.26-0.32 1.88-0.32 1.88-2.32 3.88-2.71 0.19-5.29 0.27-8 0.25-0.74 0-1.48 0.01-2.23 0.02-5.52-0.02-5.52-0.02-7.77-2.27-0.25-2.32-0.25-2.32-0.26-5.25-0.01-1.09-0.01-2.19-0.02-3.32 0.01-1.18 0.01-2.37 0.01-3.59v-3.68c0-2.57 0-5.13 0.01-7.7 0.01-3.95 0-7.89-0.01-11.8v-7.47c0-1.78 0-1.78-0.01-3.59 0.01-1.1 0.01-2.19 0.02-3.32 0-0.97 0-1.93 0.01-2.93 0.36-3.31 1.34-4.21 4.64-4.58z" fill="#2B2C2E"/>
<path transform="translate(807 801)" d="m0 0c1.71 0.01 1.71 0.01 3.45 0.02 1.13-0.01 2.26-0.01 3.43-0.02 3.17 0.26 5.4 0.91 8.26 2.27-0.17 0.63-0.33 1.27-0.5 1.93-0.83 5.08-1.14 10.2 0.5 15.1h2c0.25-0.56 0.5-1.12 0.75-1.69 1.46-2.7 3.19-4.93 5.12-7.31 0.68-0.85 1.36-1.7 2.06-2.57 5.91-6.96 5.91-6.96 11.1-7.43 2.78-0.07 5.53-0.1 8.31-0.07 0.74 0.01 1.48 0.01 2.24 0.02 1.82 0.01 3.63 0.03 5.45 0.05 0.49 1.48 0.49 1.48 1 3l-3 2-1 3c-1.63 1.71-3.3 3.37-5 5-1.36 1.31-2.69 2.64-4 4l-1.4 1.4c-2.94 3.16-2.94 3.16-3.6 7.28 0.83 2.34 0.83 2.34 2.5 3.75 2.17 2.27 2.16 4.52 2.5 7.57h2c3 4.38 3 4.38 3 7 0.99 0.33 1.98 0.66 3 1 1.18 3.06 1.18 3.06 2 6h2l2 7c-2.14 2.13-6.8 1.18-9.75 1.18-0.82 0.02-1.63 0.03-2.46 0.04-8.09 0.02-8.09 0.02-11.8-2.22-1.66-2.14-1.66-2.14-3.07-4.69-0.49-0.89-0.99-1.78-1.51-2.69-0.7-1.3-0.7-1.3-1.42-2.62-0.79-1.38-1.58-2.76-2.38-4.13-0.53-0.95-1.07-1.9-1.62-2.87-2.1 0.4-2.1 0.4-4 2-0.44 2.8-0.65 5.25-0.69 8.06-0.22 7.85-0.22 7.85-1.31 8.94-1.96 0.07-3.92 0.08-5.88 0.06-1.07-0.01-2.14-0.02-3.24-0.03-1.43-0.02-1.43-0.02-2.88-0.03h-3c-2.19-1-2.19-1-4-2-0.05-7.8-0.09-15.6-0.11-23.4-0.01-2.66-0.03-5.31-0.04-7.96-0.03-3.81-0.04-7.62-0.05-11.4-0.01-1.19-0.02-2.38-0.03-3.61v-3.34c-0.01-1.46-0.01-1.46-0.01-2.95 0.37-3.64 1.54-4.26 5.1-4.59z" fill="#2A2B2D"/>
<path transform="translate(475,802)" d="m0 0c2.79-0.05 5.58-0.09 8.38-0.12 0.79-0.02 1.58-0.04 2.4-0.06 2.07-0.01 4.15 0.08 6.22 0.18 2.4 2.4 2.28 3.07 2.41 6.35 0.04 0.85 0.08 1.7 0.12 2.58 0.03 0.89 0.06 1.78 0.09 2.69 0.04 0.9 0.08 1.8 0.12 2.72 0.1 2.22 0.18 4.44 0.26 6.66l16 1c-0.01-1.42-0.02-2.84-0.04-4.3 0-1.86-0.01-3.72-0.02-5.58-0.01-0.93-0.02-1.87-0.03-2.83 0-0.9 0-1.8-0.01-2.72 0-0.83-0.01-1.65-0.01-2.51 0.11-2.06 0.11-2.06 1.11-4.06 2.81-0.03 5.62-0.05 8.44-0.06 1.2-0.02 1.2-0.02 2.43-0.03 2.04-0.01 4.09 0.04 6.13 0.09 1 1 1 1 1.12 3.25 0 0.99 0 1.98-0.01 3v3.4c0 1.22-0.01 2.44-0.01 3.7 0 1.24-0.01 2.48-0.01 3.76 0 3.31-0.01 6.61-0.02 9.92-0.01 3.37-0.02 6.74-0.02 10.1-0.01 6.62-0.03 13.2-0.05 19.9-2.77 0.03-5.54 0.05-8.31 0.06-0.79 0.01-1.57 0.02-2.38 0.03-0.76 0-1.52 0-2.3 0.01-1.04 0.01-1.04 0.01-2.11 0.01-1.9-0.11-1.9-0.11-4.9-1.11-0.03-2.27-0.05-4.54-0.06-6.81-0.01-1.27-0.03-2.53-0.04-3.83 0.1-3.36 0.1-3.36 1.1-6.36-1.16-1.39-1.16-1.39-4.38-1.1-1.39 0.01-2.79 0.02-4.18 0.04-0.71 0-1.42 0.01-2.16 0.01-1.76 0.01-3.52 0.03-5.28 0.05-0.09 1.93-0.09 1.93-0.18 3.9-0.09 1.68-0.17 3.36-0.26 5.04-0.04 0.85-0.08 1.7-0.12 2.57-0.04 0.81-0.08 1.62-0.12 2.45-0.04 0.75-0.08 1.5-0.11 2.27-0.21 1.77-0.21 1.77-1.21 2.77-2.82 0.1-5.62 0.14-8.44 0.12-0.79 0.01-1.58 0.01-2.39 0.02-5.92-0.01-5.92-0.01-8.17-1.14-0.03-7.65-0.04-15.3-0.05-23-0.01-2.61-0.02-5.21-0.03-7.82-0.01-3.74-0.01-7.47-0.02-11.2 0-1.17-0.01-2.34-0.01-3.55v-3.28c-0.01-0.95-0.01-1.91-0.01-2.89 0.12-2.29 0.12-2.29 1.12-4.29z" fill="#101113"/>
<path transform="translate(1132 801)" d="m0 0h2.4c1.35-0 1.35-0 2.72-0.01 0.97 0.01 1.94 0.02 2.94 0.03h3.01c2.11 0 4.21 0.01 6.31 0.02 3.23 0.02 6.46 0.02 9.69 0.02 2.04 0.01 4.08 0.01 6.12 0.02h2.94c0.9 0.01 1.79 0.02 2.72 0.02 0.79 0.01 1.58 0.01 2.39 0.01 1.82 0.14 1.82 0.14 2.82 1.14 0.26 2.33 0.46 4.66 0.62 7 0.1 1.28 0.19 2.55 0.29 3.87 0.03 1.03 0.06 2.06 0.09 3.13-1 1-1 1-3.69 1.11-1.16 0-2.33-0.01-3.53-0.02h-3.82l-4.02-0.03c-1.35-0.01-2.69-0.01-4.04-0.01-3.3-0.02-6.6-0.03-9.9-0.05l1 5c1.07 0.03 1.07 0.03 2.17 0.06 3.23 0.09 6.47 0.2 9.7 0.31 1.69 0.05 1.69 0.05 3.42 0.1 1.62 0.05 1.62 0.05 3.26 0.11 1 0.03 1.99 0.07 3.02 0.1 2.43 0.32 2.43 0.32 4.43 2.32 0.23 2.78 0.23 2.78 0.19 6.06-0.01 1.08-0.02 2.17-0.02 3.28-0.17 2.66-0.17 2.66-1.17 3.66-1.93 0.16-3.86 0.25-5.79 0.31-1.17 0.05-2.34 0.09-3.54 0.13-1.23 0.04-2.47 0.08-3.73 0.12-1.86 0.06-1.86 0.06-3.75 0.13-3.06 0.11-6.13 0.21-9.19 0.31l1 4c0.81 0.02 1.61 0.04 2.44 0.06 3.65 0.09 7.29 0.2 10.9 0.31 1.27 0.03 2.54 0.06 3.85 0.1 1.22 0.03 2.43 0.07 3.68 0.11 1.12 0.03 2.24 0.07 3.39 0.1 2.71 0.32 2.71 0.32 4.71 2.32 0.19 3.04 0.19 3.04 0.12 6.62-0.02 1.19-0.03 2.38-0.05 3.6-0.03 0.92-0.05 1.83-0.07 2.78-4.92 1.27-9.79 1.16-14.8 1.17-0.94 0-1.88 0-2.85 0.01h-5.96c-3.05 0-6.1 0.02-9.15 0.04-1.93 0-3.86 0.01-5.79 0.01-1.37 0.01-1.37 0.01-2.77 0.02-0.84 0-1.69-0.01-2.56-0.01h-2.25c-1.84-0.24-1.84-0.24-3.84-2.24-0.26-2.32-0.26-2.32-0.26-5.25-0.01-1.09-0.01-2.19-0.02-3.31 0-1.19 0.01-2.38 0.01-3.6v-3.68c0-2.56 0-5.13 0.01-7.7 0.01-3.95 0-7.89-0.02-11.8 0.01-2.49 0.01-4.99 0.01-7.48 0-1.78 0-1.78-0.01-3.59 0.01-1.1 0.01-2.19 0.02-3.32v-2.93c0.33-2.99 1.14-4.17 4.2-4.56z" fill="#2B2C2E"/>
<path transform="translate(1019 801)" d="m0 0c0.74 0.01 1.47 0.02 2.23 0.02 1.11-0.01 1.11-0.01 2.24-0.02 5.51 0.02 5.51 0.02 7.76 2.27 0.24 2.53 0.35 4.96 0.38 7.5 0.02 0.74 0.04 1.48 0.05 2.25 0.06 2.37 0.1 4.75 0.14 7.13 0.04 2.37 0.09 4.74 0.14 7.11 0.03 1.48 0.06 2.95 0.08 4.43 0.07 4.88 0.07 4.88 1.21 9.58 3.37 2.59 6.91 2.31 11 2 3.01-3 2.32-6.4 2.35-10.4 0.01-0.84 0.03-1.68 0.04-2.54 0.05-2.67 0.08-5.35 0.11-8.03 0.05-3.52 0.1-7.04 0.16-10.6 0.01-0.81 0.01-1.63 0.02-2.47 0.1-5.74 0.1-5.74 2.32-7.97 3.12-0.26 3.12-0.26 6.88-0.25 1.85 0 1.85 0 3.74-0.01 3.2 0.25 4.66 0.77 7.38 2.26 0.05 5.66 0.09 11.3 0.11 17 0.01 1.93 0.03 3.86 0.05 5.78 0.02 2.77 0.03 5.53 0.04 8.3 0.01 0.86 0.02 1.73 0.03 2.62 0 2.11-0.1 4.22-0.23 6.32l-2 2c-0.35 1.08-0.7 2.15-1.06 3.25-2.33 5.73-7.94 8.24-13.2 10.9-3.67 1.15-7.22 1.19-11 1.17-0.75-0.01-1.51-0.01-2.29-0.01-5.38-0.09-9.55-0.83-14.4-3.31v-2c-0.74-0.22-1.48-0.45-2.25-0.68-4-1.92-5.94-4.62-7.82-8.59-3.21-9.45-2.04-21.2-2.11-31-0.02-1.67-0.02-1.67-0.04-3.38 0-1.05 0-2.09-0.01-3.17 0-0.94 0-1.88-0.01-2.85 0.53-4.97 3.76-4.54 8.01-4.56z" fill="#2B2C2E"/>
<path transform="translate(539,802)" d="m0 0c6.68-0.03 13.4-0.04 20-0.05 2.27-0.01 4.54-0.02 6.81-0.03 3.26-0.01 6.52-0.01 9.78-0.02 1.02 0 2.05-0.01 3.1-0.01h2.85c0.83-0.01 1.67-0.01 2.53-0.01 1.9 0.12 1.9 0.12 2.9 1.12v13c-9.24 0.33-18.5 0.66-28 1l-1 5c2.99 0.87 5.59 1.1 8.7 1.03 0.88-0.01 1.76-0.03 2.66-0.04 1.85-0.04 3.7-0.07 5.55-0.12 0.88-0.01 1.76-0.02 2.66-0.03 0.8-0.02 1.6-0.03 2.43-0.05 2 0.21 2 0.21 4 2.21 0.2 3.04 0.2 3.04 0.12 6.62-0.01 1.19-0.03 2.38-0.05 3.61-0.02 0.91-0.05 1.83-0.07 2.77-8.35 0.95-16.6 1.11-25 1-0.59 1.95-0.59 1.95-1 4 1.83 1.83 4.76 1.24 7.22 1.32 1.89 0.06 1.89 0.06 3.82 0.12l4.02 0.12c1.35 0.05 2.69 0.09 4.04 0.13 3.3 0.11 6.6 0.21 9.9 0.31 1.38 2.76 1.1 5.05 1.06 8.12-0.01 1.1-0.02 2.2-0.02 3.33-0.02 0.84-0.03 1.68-0.04 2.55-6.82 0.03-13.6 0.04-20.4 0.05-2.32 0.01-4.65 0.02-6.97 0.03-3.33 0.01-6.65 0.01-9.98 0.02-1.57 0.01-1.57 0.01-3.17 0.01h-2.91c-0.85 0.01-1.7 0.01-2.58 0.01-1.94-0.12-1.94-0.12-2.94-1.12-0.09-1.75-0.12-3.5-0.11-5.25v-3.4c0-1.22 0.01-2.44 0.01-3.7 0-1.24 0.01-2.48 0.01-3.76 0-3.31 0.01-6.61 0.02-9.92 0.01-3.37 0.02-6.74 0.02-10.1 0.01-6.62 0.03-13.2 0.05-19.9z" fill="#101113"/>
<path transform="translate(1118,804)" d="m0 0c1.07 0.47 1.07 0.47 2.16 0.94 1.84 1.06 1.84 1.06 2.9 3.62-0.09 4.99-2.41 8.32-5.06 12.4-6.42-0.63-6.42-0.63-9.34-2.5-3.14-1.77-5.4-1.99-8.97-2.19-1.61-0.1-1.61-0.1-3.24-0.2-1.21-0.05-1.21-0.05-2.45-0.11l1 3c2.97 1.38 2.97 1.38 6.56 2.5 0.64 0.22 1.27 0.43 1.92 0.66 2.71 0.92 5.43 1.81 8.16 2.69 5.06 1.71 5.06 1.71 6.86 4.34 0.25 0.89 0.25 0.89 0.5 1.81h2c2.81 5.74 4.08 10.2 2.25 16.6-3.23 6.15-7.39 9.72-14 12-8.94 1.61-19 1.31-27.3-2.59-0.9-0.41-1.8-0.82-2.73-1.24-7.08-3.37-7.08-3.37-8.27-5.76 0.71-2.02 0.71-2.02 1.81-4.38 0.36-0.77 0.72-1.54 1.08-2.33 1.02-2.11 2.06-4.2 3.11-6.29 3.33 0.68 6.04 1.97 9.06 3.5 5.65 2.64 10.8 3.37 16.9 3.5l1-3c-1.03-0.27-2.06-0.54-3.12-0.81-2.46-0.7-4.39-1.45-6.69-2.63-2.84-1.39-5.09-2.03-8.13-2.75-4.89-1.43-7.73-3.54-10.8-7.57-2.13-3.88-2.22-6.98-1.23-11.2 1.81-5.95 4.85-9.41 10.2-12.6 10.4-4.65 23.5-4.07 33.8 0.56z" fill="#2B2C2E"/>
<path transform="translate(419,802)" d="m0 0c6.94-0.05 13.9-0.09 20.8-0.11 2.36-0.01 4.72-0.02 7.08-0.04 3.39-0.03 6.79-0.04 10.2-0.05 1.06-0.01 2.12-0.02 3.21-0.03h2.97c0.87 0 1.74-0.01 2.63-0.01 2.1 0.24 2.1 0.24 4.1 2.24 0.21 4.3 0.16 7.85-1 12-0.93 0.06-1.85 0.12-2.81 0.18-1.2 0.09-2.39 0.17-3.63 0.26-1.19 0.08-2.39 0.16-3.62 0.24-2.83 0-2.83 0-3.94 1.32-0.15 2.94-0.24 5.87-0.28 8.81-0.02 0.89-0.04 1.77-0.06 2.68-0.06 2.84-0.11 5.67-0.16 8.51-0.07 3.73-0.14 7.46-0.22 11.2-0.01 0.86-0.03 1.73-0.04 2.62-0.13 6.08-0.13 6.08-1.24 7.19-2.84 0.1-5.66 0.14-8.5 0.12-1.2 0.01-1.2 0.01-2.42 0.02-5.95-0.01-5.95-0.01-7.08-1.14-0.15-2.94-0.24-5.87-0.28-8.81-0.02-0.89-0.04-1.77-0.06-2.68-0.08-3.8-0.14-7.6-0.21-11.4-0.05-2.77-0.11-5.53-0.17-8.3-0.01-0.86-0.03-1.73-0.04-2.62 0.3-3.91 0.3-3.91-1.24-7.19-3.34-0.07-6.66 0-10 0.06-3-0.06-3-0.06-5-1.06-0.03-1.96-0.05-3.92-0.06-5.88-0.01-1.09-0.03-2.18-0.04-3.3 0.1-2.82 0.1-2.82 1.1-4.82z" fill="#101113"/>
<path transform="translate(684,893)" d="m0 0v2c0.99 0.33 1.98 0.66 3 1 3.81 6.88 3.8 14.8 2.38 22.3-2.16 4.21-4.93 6.78-9.32 8.41-7.9 1.97-17.5 3.9-25.1 0.28-1.38-12-1.38-24 0-36 8.83-1.22 20.7-2.13 29 2z" fill="#121315"/>
<path transform="translate(788 808)" d="m0 0c1.06 1.44 1.06 1.44 1.06 3.44l2 1c2 3 2 3 2 6l2 1c1.21 2.4 1.1 3.95 1.06 6.62 0 0.82-0.01 1.64-0.02 2.48-0.01 0.63-0.03 1.25-0.04 1.9-2-0.67-4-1.34-6-2-0.49-0.99-0.49-0.99-1-2h-2v5c-0.99 0.49-0.99 0.49-2 1l-2-1-1 11h-1c0.04-1.03 0.08-2.06 0.13-3.13-0.19-5.71-1.58-9.47-5.13-13.9-0.51-0.89-1.03-1.78-1.56-2.69-1.23-2.43-1.23-2.43-3.44-3.31v-2c-6.19 0.17-6.19 0.17-11.5 3-3.17 2.53-5.45 2.55-9.41 2.72-2.39 0.16-2.39 0.16-5.09 2.28h-2l-2 3-2-2h-1c-1.09-6.14-1.49-9.61 2-15 2.85-2.27 5.88-4.15 9-6 0.81-0.54 1.62-1.07 2.45-1.63 9.92-5.34 27.8-2.83 36.5 4.19z" fill="#121315"/>
<path transform="translate(547 890)" d="m0 0c1.22 0.01 1.22 0.01 2.47 0.02 0.8 0 1.6-0.01 2.42-0.02 4.64 0.02 8.51 0.36 12.8 2.27 3.44 3.63 4.9 6.27 5.19 11.3-0.19 3.61-0.88 6.33-2.19 9.68h-3v8l2 1c2 3 2 3 2 6-3.19 0.07-3.19 0.07-7-1-2.19-2.86-3.47-5.7-5-9h-10c-0.83 3.32-1.09 5.66-1 9-4.75 1.13-4.75 1.13-7 0-0.05-4.94-0.09-9.89-0.11-14.8-0.01-1.68-0.02-3.37-0.04-5.05-0.03-2.42-0.04-4.84-0.05-7.26-0.01-0.75-0.02-1.51-0.03-2.28 0-1.86 0.11-3.71 0.23-5.57 2.66-2.66 4.66-2.26 8.28-2.27z" fill="#101113"/>
<path transform="translate(1035 890)" d="m0 0c0.87-0 1.75-0.01 2.65-0.01 1.37 0.01 1.37 0.01 2.77 0.03 0.9-0.01 1.8-0.02 2.73-0.03 9.94 0.03 9.94 0.03 14 3.69 3.09 4.14 4.09 7.32 3.77 12.5-0.5 2.94-1.43 4.81-3.35 7.09-2.19 1.31-2.19 1.31-4 2 1.12 3.08 2.46 5.86 4.12 8.68 1.88 3.32 1.88 3.32 1.88 5.32-7.98-2.49-7.98-2.49-10.7-6.5-1.31-2.5-1.31-2.5-1.31-4.5-1.65-0.2-3.3-0.38-4.94-0.57-0.92-0.1-1.84-0.21-2.78-0.31-0.75-0.04-1.51-0.08-2.28-0.12-1.24 1-1.24 1-1.1 3.06 0.01 0.83 0.02 1.65 0.03 2.5 0.01 0.82 0.02 1.65 0.03 2.5 0.01 0.64 0.02 1.28 0.04 1.94-2 0.04-4 0.04-6 0-1.98-1.98-1.31-5.77-1.39-8.47-0.03-0.75-0.05-1.5-0.08-2.27-0.05-1.58-0.1-3.17-0.15-4.76-0.07-2.43-0.16-4.86-0.25-7.29l-0.15-4.62c-0.03-0.73-0.05-1.46-0.08-2.21-0.05-1.79 0.01-3.59 0.1-5.38 2.43-2.44 3.06-2.26 6.39-2.27z" fill="#2B2C2E"/>
<path transform="translate(733,891)" d="m0 0c3.73-0.09 7.46-0.14 11.2-0.19 1.05-0.02 2.11-0.05 3.19-0.07 1.54-0.02 1.54-0.02 3.1-0.03 0.94-0.02 1.88-0.03 2.84-0.05 3.99 0.51 6.62 2.28 9.43 5.09 2.13 3.84 2.32 7.67 2.13 12-1.2 3.08-3.05 3.69-5.88 5.25-1.21 3.11-1.21 3.11-1 7h2c1.07 1.96 2.07 3.97 3 6l-1 2c-4.48-0.86-6.51-1.4-9.44-5-1.56-3-1.56-3-1.56-5h-11l-1 9c-1.98 0.5-1.98 0.5-4 1-2.21-3.32-2.23-4.27-2.16-8.11 0.01-1 0.02-2.01 0.03-3.04 0.02-1.04 0.05-2.09 0.07-3.16 0.1-6.06 0.08-11.7-0.94-17.7 0.3-1.67 0.63-3.34 1-5z" fill="#141517"/>
<path transform="translate(835 689)" d="m0 0c3.27 1.86 4.46 3.02 5.75 6.56-0.31 3-0.31 3-2 6-1.57 1.2-1.57 1.2-3.48 2.35-0.72 0.43-1.44 0.86-2.18 1.3-4.06 2.34-8.16 4.61-12.3 6.85-1.69 0.93-3.39 1.86-5.09 2.78-0.82 0.45-1.65 0.9-2.5 1.36-1.66 0.92-3.31 1.85-4.96 2.79-0.79 0.45-1.57 0.9-2.38 1.37-1.05 0.6-1.05 0.6-2.12 1.22-3.01 1.47-5.69 1.77-9.01 1.98v-2l-4-2c-0.47-4.04-0.36-5.54 2.19-8.81 2.79-2.18 4.33-2.89 7.81-3.19v-3c1.07-0.27 2.14-0.53 3.25-0.81 3.38-1.07 5.09-2 7.75-4.19 0.99-0.33 1.98-0.66 3-1 0.41-0.45 0.83-0.91 1.25-1.37 2.07-1.92 4.25-2.77 6.86-3.79 1.98-0.88 3.65-1.96 5.45-3.15 3.44-1.69 3.44-1.69 6.69-1.25z" fill="#FDFEFE"/>
<path transform="translate(838,662)" d="m0 0c1.81 3.56 1.81 3.56 3 7-4.21 6.1-9.45 8.74-16 12-1.2 0.63-1.2 0.63-2.42 1.27-5.28 2.73-5.28 2.73-7.58 2.73l-1 3c-2.33 1.32-2.33 1.32-5.25 2.56-0.95 0.42-1.91 0.83-2.89 1.26-1.42 0.58-1.42 0.58-2.86 1.18-0.88 0.4-1.75 0.79-2.66 1.2-3.31 1.13-5.21 0.15-8.34-1.2-1-1-1-1-1.38-3.75 0.38-3.25 0.38-3.25 2.57-6.06 2.79-2.18 4.33-2.89 7.81-3.19v-2c0.58-0.28 1.17-0.56 1.77-0.85 4.86-2.37 9.57-4.89 14.2-7.65 3.78-2.22 7.57-4.43 11.4-6.5 0.76-0.41 1.52-0.83 2.31-1.25 2.86-0.95 4.43-0.78 7.25 0.25z" fill="#FEFEFE"/>
<path transform="translate(835 633)" d="m0 0c0.54 0.23 1.07 0.45 1.62 0.69v2h2c1.4 2.8 1.26 4.9 1 8-1.18 1.87-1.18 1.87-3 3-2.68 0.19-2.68 0.19-5 0 0.5 1.48 0.5 1.48 1 3-1.26 0.5-2.53 1-3.81 1.5-0.71 0.28-1.41 0.55-2.14 0.84-2.05 0.66-2.05 0.66-5.05 0.66-0.33 0.99-0.65 1.98-1 3-2.17 1.27-4.28 2.37-6.56 3.43-4.05 1.94-8.06 3.9-12 6.07-3.44 1.5-3.44 1.5-6.25 1.37-2.19-0.87-2.19-0.87-5.19-2.87 0.07-3.42 0.2-6.04 2.45-8.73 4.13-3.63 7.9-6.27 13.6-6.27v-2c3.21-1.78 6.42-3.55 9.63-5.31 0.9-0.5 1.81-1 2.74-1.52 13.1-7.24 13.1-7.24 16-6.86z" fill="#FEFEFE"/>
<path transform="translate(633,890)" d="m0 0c2.59 3.32 3.9 7.15 5.3 11.1 0.58 1.6 1.23 3.18 1.89 4.74 0.81 2.19 0.81 2.19 0.81 5.19h2c1.98 5.61 3.96 11.2 6 17-2.31-0.33-4.62-0.66-7-1l-2-6c-9.6-1.32-9.6-1.32-19 0-2.02 2.15-3.55 4.44-5 7l-5-1c1.76-6.11 3.7-12.1 6-18h3c0.1-0.83 0.21-1.65 0.31-2.5 0.8-4.06 2.12-7.68 3.69-11.5 0.33-0.8 0.66-1.61 1-2.44 1.95-3.04 4.63-2.56 8-2.56z" fill="#131416"/>
<path transform="translate(856,890)" d="m0 0c3.54 0.54 3.54 0.54 5 2 0.21 1.81 0.37 3.62 0.5 5.44 0.21 3.92 0.21 3.92 1.5 7.56 3.56 1.19 6.97 1.35 10.7 1.56 0.7 0.05 1.4 0.09 2.12 0.13 1.73 0.11 3.46 0.21 5.19 0.31-0.02-1.06-0.05-2.12-0.07-3.21-0.02-1.39-0.04-2.78-0.05-4.17-0.02-0.69-0.04-1.39-0.06-2.11-0.01-1.84 0.08-3.68 0.18-5.51l2-2c3.54 0.54 3.54 0.54 5 2 0.09 2.59 0.12 5.16 0.1 7.75 0 0.78-0.01 1.55-0.01 2.35 0 2.49-0.01 4.98-0.03 7.46 0 1.68-0.01 3.37-0.01 5.05-0.01 4.13-0.03 8.26-0.05 12.4-2.38 0.62-2.38 0.62-5 1-3.57-3.57-2.69-9.15-3-14l-19-1v15c-5 1-5 1-7 0-0.05-5.09-0.09-10.2-0.11-15.3-0.01-1.73-0.02-3.47-0.04-5.2-0.03-2.49-0.04-4.97-0.05-7.46-0.01-0.78-0.02-1.55-0.03-2.35 0-1.91 0.11-3.82 0.23-5.72l2-2z" fill="#2B2C2E"/>
<path transform="translate(1e3 890)" d="m0 0c1.07-0 2.13-0.01 3.23-0.01 1.68 0.01 1.68 0.01 3.39 0.03 1.12-0.01 2.24-0.02 3.4-0.03 1.06 0 2.13 0.01 3.23 0.01 0.98 0 1.96 0 2.98 0.01 2.39 0.26 2.39 0.26 4.39 2.26-0.33 1.65-0.65 3.3-1 5h-19c-0.95 3.83-0.91 5.32 0 9 1.14-0.03 2.27-0.05 3.43-0.07 1.49-0.02 2.97-0.04 4.45-0.06 0.75-0.02 1.49-0.03 2.26-0.05 1.96-0.02 3.91 0.07 5.86 0.18 0.66 0.66 1.33 1.32 2 2-0.37 2.12-0.37 2.12-1 4-1.82 0.09-1.82 0.09-3.68 0.18-1.58 0.08-3.17 0.17-4.75 0.25-1.21 0.06-1.21 0.06-2.43 0.12-3.89-0.15-3.89-0.15-7.14 1.45-0.04 2.33-0.04 4.66 0 7 0.57 0.02 1.14 0.04 1.72 0.06 2.55 0.09 5.11 0.2 7.66 0.31 0.89 0.03 1.78 0.06 2.7 0.09 0.85 0.04 1.7 0.08 2.57 0.12 0.79 0.03 1.57 0.06 2.38 0.1 1.97 0.32 1.97 0.32 3.97 2.32-0.37 2.12-0.37 2.12-1 4-3.93 0.22-7.87 0.42-11.8 0.62-1.12 0.07-2.24 0.13-3.39 0.2-1.07 0.05-2.15 0.1-3.25 0.15-1.49 0.08-1.49 0.08-3 0.16-2.55-0.13-2.55-0.13-5.55-2.13-0.29-2.68-0.39-5.11-0.36-7.79v-2.33c0-1.62 0.01-3.25 0.03-4.88 0.02-2.49 0.02-4.99 0.01-7.48 0.01-1.58 0.02-3.16 0.02-4.74v-2.27c0.09-6.47 1.31-7.77 7.68-7.78z" fill="#2B2C2E"/>
<path transform="translate(904 890)" d="m0 0c1.07-0 2.13-0.01 3.23-0.01 1.68 0.01 1.68 0.01 3.39 0.03 1.12-0.01 2.24-0.02 3.4-0.03 1.06 0 2.13 0.01 3.23 0.01 0.98 0 1.96 0 2.98 0.01 2.39 0.26 2.39 0.26 4.39 2.26v4h-21v8c2.23 2.22 8.04 1.4 11.2 1.51 5.6 0.27 5.6 0.27 7.81 2.49v4c-3.75 1.2-7.33 1.09-11.2 1.06-1.27-0.01-2.53-0.02-3.83-0.03-0.97-0.01-1.93-0.02-2.93-0.03-1.44 2.52-1.44 2.52-1 8 6.93 0.33 13.9 0.66 21 1 0.34 1.65 0.66 3.3 1 5-2.55 2.55-9.36 1.53-12.8 1.68-1.66 0.09-1.66 0.09-3.35 0.18-1.6 0.08-1.6 0.08-3.23 0.15-1.47 0.07-1.47 0.07-2.96 0.14-2.75-0.16-4.31-0.74-6.65-2.15-0.04-4.95-0.08-9.9-0.1-14.8-0.01-1.68-0.03-3.37-0.05-5.05-0.02-2.42-0.03-4.84-0.04-7.25-0.01-0.76-0.02-1.51-0.03-2.29 0-1.86 0.1-3.71 0.22-5.56 2.61-2.61 3.75-2.26 7.38-2.27z" fill="#2B2C2E"/>
<path transform="translate(845,892)" d="m0 0c0.75 3.12 0.75 3.12 1 6-3.95 1.32-6.11 0.3-10-1l-1-1c-2.46-0.25-2.46-0.25-5 0-2.29 1.84-2.29 1.84-2.12 4.62 0.04 0.79 0.08 1.57 0.12 2.38 0.99 0.25 1.98 0.5 3 0.75 6.39 1.85 12.6 4.2 16 10.2 0.43 4.12 0.63 7.65-2 11-3.06 1.69-3.06 1.69-6 3l-1 1c-8.23 1.05-14-0.74-21-5l2-6c3 0 3 0 6 2 5 1.39 10.1 1.65 15 0-1.47-4.12-4.21-6.1-8-8-2.85-1.03-5.71-1.99-8.61-2.88-2.39-1.12-2.39-1.12-3.73-3-1.1-3.52-0.67-6.6 0.34-10.1 2.47-3.12 5.28-5.44 9.12-6.69 5.39-0.58 11.2-0.33 15.9 2.69z" fill="#2A2B2D"/>
<path transform="translate(796,891)" d="m0 0c1.35 2.71 1.07 5.01 1 8-5.63-0.9-5.63-0.9-8-1.56-2.68-0.59-5.26-0.5-8-0.44l-1 5c3.67 1.93 7.28 3.47 11.2 4.88 3.07 1.22 4.64 1.94 6.93 4.37 1.2 3.74 1.08 6.83 0.88 10.8h-2c-0.25 0.62-0.5 1.24-0.75 1.88-1.9 3.23-4.13 3.68-7.61 4.71-5.88 0.91-11.4-0.67-16.8-2.9-1.81-1.69-1.81-1.69-2.31-4.25 0.5-2.44 0.5-2.44 3.5-4.44 0.76 0.47 1.53 0.95 2.31 1.44 3.82 2.22 6.54 2.68 10.9 2.62 0.9-0.01 1.8-0.02 2.73-0.02 0.69-0.02 1.37-0.03 2.08-0.04-0.82-3.36-1.34-5.46-4.06-7.69-3.89-1.74-7.87-3.06-11.9-4.31v-2h-2v-2h-2c-0.47-6.99-0.47-6.99 1.31-10.8 6.8-5.53 15.6-6.33 23.7-3.19z" fill="#2A2B2D"/>
<path transform="translate(591 890)" d="m0 0c0.83 0 1.67 0.01 2.53 0.01 1.27 0.01 1.27 0.01 2.57 0.03 0.87 0 1.75 0 2.65 0.01 2.14 0.01 4.27 0.03 6.41 0.05 0.38 1.65 0.71 3.32 1 5-1.51 1.51-2.89 1.19-5 1.28-0.8 0.04-1.61 0.07-2.44 0.11-1.71 0.07-3.41 0.14-5.12 0.21-0.81 0.04-1.61 0.08-2.44 0.12-1.11 0.04-1.11 0.04-2.25 0.09-1.78 0.01-1.78 0.01-2.75 1.19-0.04 2.33-0.04 4.66 0 7 1.22 0.06 2.43 0.12 3.68 0.18 1.59 0.09 3.17 0.17 4.76 0.26 0.8 0.03 1.6 0.07 2.43 0.11 6.02 0.33 6.02 0.33 7.13 1.45 0.04 1.66 0.04 3.33 0 5-1.82 0.09-1.82 0.09-3.68 0.18-1.59 0.09-3.17 0.17-4.76 0.26-1.2 0.05-1.2 0.05-2.43 0.11-3.88-0.15-3.88-0.15-7.13 1.45-0.17 3.5-0.17 3.5 0 7 1.51 1.51 2.92 1.21 5.04 1.31 1.21 0.07 1.21 0.07 2.45 0.13 1.27 0.06 1.27 0.06 2.57 0.12 1.28 0.06 1.28 0.06 2.59 0.13 2.12 0.11 4.23 0.21 6.35 0.31l2 4c-1.77 1.77-4.35 1.13-6.75 1.13h-3.53c-1.23 0-2.46 0-3.72-0.01-1.84 0.01-1.84 0.01-3.72 0.01h-3.53-3.27c-2.48-0.13-2.48-0.13-3.48-1.13-0.09-2.67-0.12-5.31-0.1-7.98 0-0.79 0.01-1.59 0.01-2.41 0-2.56 0.01-5.12 0.03-7.67 0-1.73 0.01-3.46 0.01-5.19 0.01-4.25 0.03-8.5 0.05-12.8 3.97-0.62 7.82-1.13 11.8-1.1z" fill="#101113"/>
<path transform="translate(966,546)" d="m0 0c2.44 0.25 2.44 0.25 5 1 2 3 2 3 1.62 6.19-0.2 0.93-0.41 1.85-0.62 2.81l-4 1v2c-5.63 3.09-11.3 6.13-17 9-1.67 0.99-3.34 1.99-5 3-3.19 1.9-6.27 3.72-9.75 5.06-2.35 0.98-3.6 2.03-5.25 3.94-0.99-0.33-1.98-0.66-3-1v-3l4-1-1-5c-0.99 0.33-1.98 0.66-3 1 0.19-1.81 0.19-1.81 1-4 2.38-1.56 2.38-1.56 5-3 0.46-0.48 0.93-0.97 1.4-1.47 1.83-1.75 3.45-2.5 5.79-3.47 5.57-2.38 10.9-4.82 16-8.18 2.57-1.72 4.93-2.81 7.81-3.88l1-1z" fill="#191A1C"/>
<path transform="translate(668 896)" d="m0 0c5.08 0.01 7.84 0.5 11.7 3.88 3.46 3.53 4.4 5.61 4.43 10.6 0.02 0.87 0.03 1.75 0.05 2.65-0.23 2.41-0.23 2.41-2.23 5.41h-2c-0.23 0.64-0.46 1.28-0.69 1.94-1.31 2.06-1.31 2.06-3.31 2.81-4.32 0.36-8.69 0.7-13 0.25-2-2-2-2-2.25-4.41 0.01-0.99 0.01-1.98 0.02-3v-3.25c0.02-1.12 0.03-2.25 0.04-3.4v-3.42c0.05-9.69 0.05-9.69 7.25-10z" fill="#FEFEFE"/>
<path transform="translate(697,891)" d="m0 0h26l1 5c-0.86 0.04-0.86 0.04-1.73 0.08-2.57 0.11-5.14 0.23-7.71 0.36-0.9 0.04-1.79 0.08-2.72 0.12-0.85 0.04-1.71 0.08-2.59 0.12-0.79 0.04-1.58 0.08-2.39 0.11-1.87 0.02-1.87 0.02-2.86 1.21-0.37 2.33-0.7 4.66-1 7 4.19 1.4 8.28 1.01 12.6 0.87 1.79-0.03 3.57 0.05 5.36 0.13l2 2c-0.38 2.12-0.38 2.12-1 4-0.96-0.02-1.93-0.05-2.92-0.07-1.27-0.02-2.53-0.04-3.83-0.05-1.88-0.04-1.88-0.04-3.8-0.08-3.18 0.18-4.82 0.51-7.45 2.2-0.04 2.33-0.04 4.67 0 7 0.98 1.2 0.98 1.2 2.86 1.11 0.79 0 1.58-0.01 2.39-0.01 0.86-0.01 1.71-0.01 2.59-0.01 0.9-0.01 1.8-0.02 2.72-0.03 1.36 0 1.36 0 2.73-0.01 2.24-0.01 4.47-0.03 6.71-0.05 1.06 1.88 1.06 1.88 2 4l-1 2h-27c-1.21-3.63-1.12-6.95-1.1-10.7 0-0.75 0.01-1.5 0.01-2.27 0-2.4 0.01-4.79 0.03-7.19 0-1.62 0.01-3.25 0.01-4.87 0.01-3.98 0.03-7.96 0.05-11.9z" fill="#111214"/>
<path transform="translate(767 817)" d="m0 0c1.23 0.01 1.23 0.01 2.48 0.03 0.94 0.01 0.94 0.01 1.9 0.03v2c0.59 0.21 1.19 0.42 1.81 0.63 3.22 2.03 3.96 3.76 5.19 7.37 0.14 5.46-0.17 9.87-4 14h-2c-0.34 0.99-0.66 1.98-1 3-8.61 0.86-8.61 0.86-12.4-2.18-5.47-5.87-5.47-5.87-5.79-9.89 0.24-5.52 1.94-8.63 5.69-12.6 2.69-2.4 4.6-2.43 8.1-2.38z" fill="#FEFEFE"/>
<path transform="translate(705,817)" d="m0 0c3.9 3.12 6.53 6.71 7.54 11.6 0.16 4.84-0.31 8.56-3.54 12.4-2.62 2.62-4.22 3.85-7.88 4.56-4.14-0.74-7.11-2.62-10.1-5.56v-2l-2-1c-1.16-2.33-1.17-3.79-1.19-6.38-0.01-0.77-0.03-1.54-0.04-2.33 0.25-2.51 0.98-4.12 2.23-6.29h2l1-3c3.46-2.63 7.88-3.23 12-2z" fill="#FEFEFE"/>
<path transform="translate(980,818)" d="m0 0c3.28 2.07 4.85 3.77 7 7 0.64 4.68 1.12 9.78-1.05 14.1-1.75 2.11-3.49 3.68-5.95 4.91-5.04 0.38-7.95 0.07-12-3-0.76-0.54-1.53-1.07-2.31-1.62-3.07-4.33-2.01-9.42-1.19-14.4 0.16-0.64 0.33-1.28 0.5-1.94h2v-3c4.28-2.14 8.3-2.79 13-2z" fill="#FEFEFE"/>
<path transform="translate(965 890)" d="m0 0c1.87-0 1.87-0 3.78-0.01 1.97 0.01 1.97 0.01 3.97 0.03 1.31-0.01 2.62-0.02 3.97-0.03 1.25 0 2.49 0.01 3.78 0.01 1.15 0 2.3 0 3.48 0.01 2.77 0.26 2.77 0.26 4.77 2.26l-1 5-11 1v29h-6c-1-1-1-1-1.11-3.78 0-1.21 0.01-2.42 0.01-3.67 0.01-1.3 0.01-2.61 0.01-3.95l0.03-4.17c0-1.39 0.01-2.78 0.01-4.17 0.01-3.42 0.03-6.84 0.05-10.3-0.69-0.03-1.37-0.06-2.08-0.08-0.9-0.06-1.8-0.12-2.73-0.17-1.34-0.07-1.34-0.07-2.71-0.14-2.48-0.61-2.48-0.61-4.3-2.66-0.39-0.65-0.78-1.29-1.18-1.95 2.76-2.76 4.39-2.26 8.25-2.27z" fill="#2B2C2E"/>
<path transform="translate(935,890)" d="m0 0c3.54 0.54 3.54 0.54 5 2 0.16 2.22 0.25 4.44 0.32 6.66 0.02 0.66 0.04 1.33 0.06 2.01l0.18 6.39c0.05 1.44 0.09 2.88 0.13 4.32 0.11 3.54 0.21 7.08 0.31 10.6h15l1 5c-2.36 2.36-8.27 1.19-11.4 1.19-0.98 0.01-1.96 0.02-2.97 0.03-0.93 0.01-1.87 0.01-2.84 0.01-0.86 0-1.72 0.01-2.61 0.01-2.14-0.24-2.14-0.24-4.14-2.24-0.2-2.56-0.28-5-0.27-7.56v-2.27c0-1.58 0-3.16 0.01-4.74 0.01-2.42 0-4.84-0.01-7.27v-4.6c0-0.72 0-1.45-0.01-2.2 0.05-5.13 0.05-5.13 2.28-7.36z" fill="#2B2C2E"/>
<path transform="translate(671,621)" d="m0 0h4v2c1.67 0.4 1.67 0.4 3.38 0.81 3.62 1.19 3.62 1.19 5.62 4.19 0.27 3.4 0.27 3.4 0.25 7.38 0.01 1.3 0.01 2.61 0.02 3.96-0.25 3.38-0.8 5.64-2.27 8.66-4.59-0.55-7.92-1.87-12-4-0.03-3.65-0.05-7.29-0.06-10.9-0.01-1.04-0.02-2.08-0.03-3.15 0-1.49 0-1.49-0.01-3 0-0.92-0.01-1.83-0.01-2.78 0.11-2.13 0.11-2.13 1.11-3.13z" fill="#FDFEFE"/>
<path transform="translate(644,606)" d="m0 0c4.04 1.22 7.51 2.6 11 5 1.25 2.5 1.11 4.21 1.1 7.01-0.01 0.98-0.01 1.97-0.01 2.99-0.01 1.03-0.02 2.06-0.03 3.12 0 1.05-0.01 2.09-0.01 3.16-0.01 2.57-0.03 5.15-0.05 7.72-3.37-0.75-5.48-1.84-8.25-3.94-0.71-0.52-1.41-1.05-2.14-1.59-0.53-0.48-1.06-0.97-1.61-1.47v-2h-2c-0.05-2.96-0.09-5.92-0.12-8.88-0.02-0.84-0.04-1.68-0.06-2.55 0-0.8-0.01-1.61-0.02-2.44-0.01-1.11-0.01-1.11-0.03-2.25 0.23-1.88 0.23-1.88 2.23-3.88z" fill="#FDFEFE"/>
<path transform="translate(645,568)" d="m0 0c3.69 0.78 6.35 1.43 9.22 3.94 2.58 4.44 2.22 8.33 2.03 13.4-0.02 0.93-0.04 1.87-0.05 2.82-0.05 2.29-0.12 4.58-0.2 6.87-3.76-0.58-6.53-1.65-9.81-3.56-0.79-0.46-1.58-0.91-2.4-1.38-0.59-0.35-1.18-0.7-1.79-1.06-0.08-2.94-0.14-5.87-0.19-8.81-0.02-0.84-0.05-1.67-0.07-2.53-0.01-0.8-0.02-1.6-0.03-2.43-0.02-0.74-0.03-1.48-0.05-2.24 0.43-2.51 1.41-3.38 3.34-4.99z" fill="#FEFEFF"/>
<path transform="translate(671,582)" d="m0 0c4.98 1.27 7.7 3.04 11 7 0.75 1.88 0.75 1.88 1 4 0.19 1.05 0.37 2.1 0.56 3.19 0.5 4.3 0.53 8.49 0.44 12.8-4.91 0.24-8.09-0.59-12.2-3.34-4.14-6.02-2.8-15.7-1.83-22.7l1-1z" fill="#FDFEFE"/>
<path transform="translate(560,896)" d="m0 0c2.99 2.62 3.86 4.15 4.5 8.06-0.63 3.7-1.55 4.67-4.5 6.94-3.16 0.46-3.16 0.46-6.62 0.38-1.15-0.02-2.3-0.03-3.48-0.04-2.9-0.34-2.9-0.34-4.9-2.34-0.27-2.53-0.27-2.53-0.25-5.5-0.01-0.98-0.01-1.96-0.02-2.97 0.27-2.53 0.27-2.53 2.27-4.53 4.29-1.39 8.7-1.3 13 0z" fill="#FEFEFE"/>
<path transform="translate(747 896)" d="m0 0c5.98 0.09 5.98 0.09 8.69 1.67 1.37 1.52 1.37 1.52 3 4.83-0.19 2.88-0.19 2.88-1 5h-2l-1 3c-3.07 1.02-5.35 1.2-8.57 1.25-0.97 0.03-1.94 0.05-2.94 0.08-0.82-0.11-1.64-0.22-2.49-0.33-2.17-3.25-2.27-4.29-2.25-8.06-0.01-0.88-0.01-1.76-0.02-2.66 0.6-5.12 4.26-4.66 8.58-4.78z" fill="#FEFEFE"/>
<path transform="translate(655,896)" d="m0 0c3.16 1.37 3.99 1.99 6 5 1.2 4.23 1.12 8.45 1.06 12.8 0 0.7-0.01 1.39-0.01 2.1-0.01 1.7-0.03 3.39-0.05 5.09 2.79 0.93 4.22 1.06 7.06 0.94 3.94 0.06 3.94 0.06 5.94 2.06-6.62 2-6.62 2-10 2l-1 3c-7.88-0.88-7.88-0.88-9-2-1.59-10.1-1.91-21 0-31z" fill="#292A2C"/>
<path transform="translate(833,704)" d="m0 0c2.06 0.44 2.06 0.44 4 1v2c0.99 0.33 1.98 0.66 3 1v3l-4-1 1-2c-0.62 0.66-1.24 1.32-1.88 2-2.12 2-2.12 2-4.12 2l-1 7-4-2v-3l-1 3c-1.13 0.12-2.27 0.25-3.44 0.38-1.76 0.3-1.76 0.3-3.56 0.62l-1 2c-0.97 0.12-1.94 0.25-2.94 0.38-1.01 0.2-2.02 0.41-3.06 0.62-1.14 1.78-1.14 1.78-2 4-2.44 2.75-2.44 2.75-5 5-3.28 0-5.11-0.48-8-2-0.65-2.08-0.65-2.08-1-4 1.82-0.65 3.65-1.3 5.47-1.95 6.49-2.69 12.6-6.15 18.7-9.61 0.68-0.39 1.37-0.77 2.07-1.17 6.23-3.16 6.23-3.16 11.7-7.27z" fill="#292A2C"/>
<path transform="translate(1047,896)" d="m0 0c3.44 0.88 3.44 0.88 6 2 1.11 2.23 1.16 3.53 1.19 6 0.01 0.7 0.03 1.4 0.04 2.12-0.23 1.88-0.23 1.88-2.23 3.88-2.85 0.94-5.57 1.19-8.56 1.25-0.77 0.03-1.53 0.05-2.32 0.08-2.12-0.33-2.12-0.33-3.87-1.53-1.65-2.39-1.65-3.98-1.63-6.86 0-0.88-0.01-1.76-0.02-2.66 0.13-0.75 0.26-1.51 0.4-2.28 3.73-2.49 6.68-2.41 11-2z" fill="#FEFEFE"/>
<path transform="translate(739,908)" d="m0 0 2 2c6.27 0.71 12.1 0.11 18-2-0.16 0.76-0.33 1.53-0.5 2.31-0.59 2.73-0.59 2.73-0.5 5.69v4h2c1.07 1.96 2.07 3.97 3 6l-1 2c-4.48-0.86-6.51-1.4-9.44-5-1.56-3-1.56-3-1.56-5-1.96-0.19-3.92-0.38-5.88-0.56-1.09-0.11-2.18-0.21-3.3-0.32-2.77-0.35-2.77-0.35-4.82 0.88-0.98-3.05-0.98-4.95 0-8h2v-2z" fill="#2A2B2D"/>
<path transform="translate(701,636)" d="m0 0 2 1v68h-3c-0.02-8.85-0.04-17.7-0.05-26.6-0.01-4.1-0.01-8.21-0.03-12.3-0.01-3.96-0.01-7.93-0.01-11.9-0.01-1.51-0.01-3.03-0.02-4.54v-6.34c-0.01-1.21-0.01-2.42-0.01-3.66 0.12-2.7 0.12-2.7 1.12-3.7z" fill="#2C2D2F"/>
<path transform="translate(1079,831)" d="m0 0c0.95 0.43 1.9 0.87 2.88 1.31 2.97 1.29 5.94 2.25 9.06 3.13 4.7 1.35 8.76 3.25 13.1 5.56l-1 4c-9.94 0.14-17.4-3.55-26-8l-1 4-1-2c0.78-1.95 0.78-1.95 1.94-4.12 0.57-1.09 0.57-1.09 1.15-2.2 0.3-0.55 0.6-1.11 0.91-1.68z" fill="#FCFDFD"/>
<path transform="translate(418,801)" d="m0 0h53v2h2c0.03 2.1 0.05 4.21 0.06 6.31 0.01 1.17 0.03 2.35 0.04 3.55-0.1 3.14-0.1 3.14-1.1 6.14-3.84 0.9-7.38 1.11-11.3 1.06-1.61-0.01-1.61-0.01-3.24-0.02-0.81-0.02-1.62-0.03-2.45-0.04l1-4h13c0.02-1.96 0.04-3.92 0.06-5.94 0.01-1.1 0.03-2.2 0.04-3.34 0.21-2.63 0.21-2.63-1.1-3.72-1.53-0.12-3.07-0.18-4.61-0.21-0.98-0.02-1.96-0.04-2.97-0.06-1.6-0.02-1.6-0.02-3.24-0.05-1.08-0.02-2.17-0.04-3.29-0.06-3.48-0.06-6.97-0.12-10.4-0.18-2.36-0.05-4.71-0.09-7.07-0.13-5.79-0.11-11.6-0.21-17.4-0.31l-1 2v-3z" fill="#FAFCFC"/>
<path transform="translate(515,801)" d="m0 0h16v2h2v47l-1-2h-2l-1-45c-6.93-0.5-6.93-0.5-14-1v-1z" fill="#FCFDFD"/>
<path transform="translate(1106,816)" d="m0 0c2.15 0.93 4.13 2 6.17 3.14 2.64 1.24 4.98 1.15 7.83 0.86-0.56 1.36-0.56 1.36-1.12 2.75-1.13 3.09-1.13 3.09-0.26 5.5 1.6 2.03 3.01 2.8 5.38 3.75v3h-2l-1-4h-2c-0.43-0.63-0.86-1.26-1.31-1.91-2.12-2.62-3.49-2.88-6.75-3.59-3.94-0.97-7.76-2.03-11.6-3.44-0.82-0.3-1.64-0.59-2.48-0.9-1.9-1.16-1.9-1.16-2.67-3.29-0.08-0.62-0.15-1.23-0.23-1.87 3.72-1.86 8.04-0.78 12 0z" fill="#FBFDFD"/>
<path transform="translate(937,561)" d="m0 0c3 1 3 1 5 4v5l2 2c-2.5 1.57-4.86 2.94-7.62 4-2.42 1.02-3.68 2.03-5.38 4-0.99-0.33-1.98-0.66-3-1v-3l4-1-1-5c-0.99 0.33-1.98 0.66-3 1 0.19-1.81 0.19-1.81 1-4 2.38-1.56 2.38-1.56 5-3 1.75-1.58 1.75-1.58 3-3z" fill="#2B2C2E"/>
<path transform="translate(803,747)" d="m0 0c2.06 0.44 2.06 0.44 4 1v3c-2.97-0.5-2.97-0.5-6-1l5 2c-1 3-1 3-2.64 3.98-6.55 2.32-12.6 2.38-19.4 1.02l-3-2v-2c0.68-0.12 1.35-0.24 2.05-0.37 1.33-0.25 1.33-0.25 2.7-0.51 0.88-0.16 1.76-0.32 2.67-0.49 2.46-0.6 4.33-1.49 6.58-2.63 2.33-0.36 4.66-0.69 7-1l1-1z" fill="#292A2C"/>
<path transform="translate(736,900)" d="m0 0 1 3h2c0.18 4.62-0.19 7.77-2 12l1 2h3c-0.33 1.09-0.66 2.19-1 3.31-1.13 3.54-1.13 3.54-1 6.69l-4 1c-2.91-4.36-2.33-8.31-2.31-13.4-0.02-0.95-0.03-1.91-0.05-2.89v-2.79c-0.01-0.84-0.01-1.68-0.01-2.55 0.45-2.81 1.52-4.21 3.37-6.33z" fill="#131416"/>
<path transform="translate(796,891)" d="m0 0c1.35 2.71 1.07 5.01 1 8-5.58-0.89-5.58-0.89-7.88-1.5-2.45-0.58-4.86-0.83-7.37-1.06-0.89-0.09-1.78-0.17-2.7-0.26-0.68-0.06-1.35-0.12-2.05-0.18l1-3-2-1c4.74-4.74 14.4-2.99 20-1z" fill="#262729"/>
<path transform="translate(1e3 810)" d="m0 0c3.81 1.27 4.18 2.51 6 6 0.7 1.65 1.37 3.32 2 5h2c-0.04 0.78-0.08 1.57-0.12 2.38-0.17 2.78-0.17 2.78 2.12 4.62 0.3 2.97 0.3 2.97 0.31 6.5 0.02 1.17 0.04 2.33 0.05 3.53-0.12 0.98-0.24 1.96-0.36 2.97l-3 2-2-1-1 3-2-3 2-2c0.25-2.94 0.37-5.75 0.38-8.69 0.02-0.79 0.04-1.58 0.07-2.39 0.03-5.85-1.23-9.06-4.45-13.9-0.7-1.65-1.39-3.31-2-5z" fill="#FBFDFD"/>
<path transform="translate(645,568)" d="m0 0c6.52 1.48 6.52 1.48 8.94 4.12 0.35 0.62 0.7 1.24 1.06 1.88h-3l-1-2h-5l-1 15c2.31 0.33 4.62 0.66 7 1l1 5c0.99-0.33 1.98-0.66 3-1v3c-3.76-0.58-6.53-1.65-9.81-3.56-0.79-0.46-1.58-0.91-2.4-1.38-0.59-0.35-1.18-0.7-1.79-1.06-0.08-2.94-0.14-5.87-0.19-8.81-0.02-0.84-0.05-1.67-0.07-2.53-0.01-0.8-0.02-1.6-0.03-2.43-0.02-0.74-0.03-1.48-0.05-2.24 0.43-2.51 1.41-3.38 3.34-4.99z" fill="#FAFCFC"/>
<path transform="translate(629,899)" d="m0 0c3.35 2.23 3.78 3.24 5.19 6.88 0.34 0.86 0.69 1.72 1.04 2.61 0.77 2.51 0.77 2.51 0.77 6.51h-11c-1.11-4.43-0.72-5.57 0.88-9.69 0.36-0.97 0.73-1.94 1.11-2.95 1.01-2.36 1.01-2.36 2.01-3.36z" fill="#FDFEFE"/>
<path transform="translate(637 836)" d="m0 0c2.74 0.03 4.4 0.3 7.06 1.19 1.25 2.93 1.25 2.93 2 6l-1 2c-1.96 0.02-3.91 0.04-5.87 0.06-1.09 0.01-2.18 0.02-3.31 0.04-2.82-0.1-2.82-0.1-4.82-1.1-0.12-2.88-0.12-2.88 0-6 2-2 2-2 5.94-2.19z" fill="#FDFEFE"/>
<path transform="translate(717 664)" d="m0 0c3.06 0.38 3.06 0.38 5 2 1.41 3.16 0.94 5.08 0.06 8.38-1 1-1 1-4.31 1.37-3.69-0.37-3.69-0.37-6.13-2.87-0.51-0.83-1.03-1.65-1.56-2.5 2.73-5.84 2.73-5.84 6.94-6.38z" fill="#121315"/>
<path transform="translate(760,894)" d="m0 0c2.95 2.38 3.93 3.69 4.81 7.44 0.3 5.7 0.3 5.7-0.81 8.56-2.56 1.81-2.56 1.81-5 3l-2-2v-2l-1-2 2-1c-0.5-3.69-1.1-5.6-4-8l1-2c1.98 0.5 1.98 0.5 4 1l1-3z" fill="#1A1B1D"/>
<path transform="translate(644,606)" d="m0 0c4.03 1.22 7.6 2.48 11 5 0.81 2.19 0.81 2.19 1 4l-2-1v-2c-2.31-0.33-4.62-0.66-7-1-0.2 2.08-0.38 4.17-0.56 6.25-0.11 1.16-0.21 2.32-0.32 3.52-0.1 2.75 0.02 4.65 0.88 7.23h-3v-2h-2c-0.05-2.96-0.09-5.92-0.12-8.88-0.02-0.84-0.04-1.68-0.06-2.55 0-0.8-0.01-1.61-0.02-2.44-0.01-1.11-0.01-1.11-0.03-2.25 0.23-1.88 0.23-1.88 2.23-3.88z" fill="#FAFCFC"/>
<path transform="translate(668,825)" d="m0 0h1c0.26 3.23 0.48 6.46 0.69 9.69 0.07 0.91 0.14 1.82 0.22 2.76 0.31 5.08 0.49 8.43-2.91 12.6-1.69 1.81-1.69 1.81-3 3 0.9-6.7 0.9-6.7 1.65-8.98 0.46-2.65-0.23-3.76-1.53-6.08-1.29-2.36-2.26-4.37-3.12-6.94-2-1.21-2-1.21-4-2v-2l5-1c0.12 0.74 0.25 1.49 0.38 2.25 0.57 2.55 1.36 4.48 2.62 6.75h2l1-10z" fill="#FBFDFD"/>
<path transform="translate(643,816)" d="m0 0c1.19 2.56 1.19 2.56 2 5-1.68 2.04-2.54 2.92-5.19 3.36-0.78-0.01-1.57-0.03-2.37-0.05-0.79 0-1.57-0.01-2.38-0.01-2.06-0.3-2.06-0.3-4.06-2.3-0.19-2.56-0.19-2.56 0-5 2.78-2.78 8.6-2.13 12-1z" fill="#FBFDFD"/>
<path transform="translate(588,817)" d="m0 0c-2 2-2 2-4.52 2.23-1.04-0.01-2.08-0.02-3.14-0.03-1.13-0.01-2.25-0.02-3.4-0.02-1.18-0.02-2.35-0.04-3.56-0.06-1.78-0.01-1.78-0.01-3.59-0.02-2.93-0.03-5.86-0.06-8.79-0.1l-1 3h15v1c-2.62 0.22-5.25 0.43-7.88 0.62-0.74 0.07-1.49 0.13-2.26 0.2-1.95 0.14-3.9 0.17-5.86 0.18l-2-2c0.56-4.56 0.56-4.56 2-6 1.35-0.16 2.72-0.25 4.08-0.32 0.83-0.04 1.66-0.08 2.52-0.12 0.87-0.04 1.75-0.08 2.65-0.12 1.29-0.07 1.29-0.07 2.61-0.13 12.2-0.59 12.2-0.59 17.1 1.69z" fill="#FAFCFC"/>
<path transform="translate(722,807)" d="m0 0c2 1.38 2 1.38 4 3v2h2c0.98 1.75 1.96 3.5 2.94 5.25 0.54 0.97 1.09 1.95 1.65 2.95 2.2 4.37 2.53 7.67 2.47 12.6-0.01 0.98-0.02 1.97-0.02 2.98-0.02 0.75-0.03 1.5-0.04 2.27l-2 1v-2h-2c-0.04-0.85-0.07-1.69-0.11-2.56-0.62-10.7-2.59-16.9-8.89-25.4v-2z" fill="#FAFCFC"/>
<path transform="translate(928,569)" d="m0 0v2l4-2 1 7c-0.78 0.12-1.57 0.25-2.38 0.38-2.76 0.41-2.76 0.41-4.62 2.62l-2-5c-4.95 1.49-4.95 1.49-10 3v2h-3v-3c1.94-0.97 3.89-1.94 5.83-2.91 1.84-0.92 3.66-1.88 5.48-2.84 2.69-1.25 2.69-1.25 5.69-1.25z" fill="#161719"/>
<path transform="translate(702,905)" d="m0 0c0.75 0.25 0.75 0.25 1.52 0.5 4.02 0.81 8.09 0.5 12.2 0.37 1.77-0.03 3.54 0.05 5.31 0.13l2 2-1 4h-17v-4c-0.99-0.33-1.98-0.66-3-1v-2z" fill="#18191B"/>
<path transform="translate(945,559)" d="m0 0v2l5-2c-0.21 0.6-0.41 1.2-0.62 1.81-0.69 2.47-0.69 2.47 1.62 5.19-0.99 0.5-0.99 0.5-2 1v3l-8 1c0.04-0.91 0.08-1.82 0.12-2.75-0.12-3.13-0.51-4.64-2.12-7.25 3.75-2 3.75-2 6-2z" fill="#121315"/>
<path transform="translate(818,736)" d="m0 0 3 2c-0.99 1.49-0.99 1.49-2 3 0.99 1.49 0.99 1.49 2 3v2c-2.67 1.33-5.33 2.67-8 4-3.01-2.01-3.63-2.84-5-6 1.36-0.87 1.36-0.87 2.75-1.75 2.77-1.92 4.97-3.79 7.25-6.25z" fill="#242527"/>
<path transform="translate(810,720)" d="m0 0c-0.31 3.6-0.99 4.99-3.38 7.81-2.62 2.19-2.62 2.19-5.62 2.19-2.62-0.75-2.62-0.75-5-2-0.65-2.08-0.65-2.08-1-4 1.24-0.45 2.48-0.91 3.75-1.38 2.3-0.85 4.4-1.7 6.56-2.87 1.69-0.75 1.69-0.75 4.69 0.25z" fill="#2A2B2D"/>
<path transform="translate(833,682)" d="m0 0c1.26-0.02 2.52-0.04 3.81-0.06 0.71-0.01 1.42-0.03 2.15-0.04 2.04 0.1 2.04 0.1 5.04 1.1v5c-0.99 0.5-0.99 0.5-2 1l1 2h-2v2c-0.56-0.29-1.11-0.58-1.69-0.88-2.39-1.16-4.83-2.15-7.31-3.12l4-2-4-2 1-3z" fill="#2A2B2D"/>
<path transform="translate(966,546)" d="m0 0c2.44 0.25 2.44 0.25 5 1 2 3 2 3 1.62 6.19-0.2 0.93-0.41 1.85-0.62 2.81-6.15-0.59-6.15-0.59-8-1l-1-2c-0.99-1.34-1.99-2.68-3-4 0.8-0.31 1.61-0.62 2.44-0.94 2.45-0.82 2.45-0.82 3.56-2.06z" fill="#2E2F30"/>
<path transform="translate(662,896)" d="m0 0 2 1 1 26-4-2c-0.03-3.98-0.05-7.96-0.06-11.9-0.01-1.13-0.02-2.27-0.03-3.44 0-1.08 0-2.16-0.01-3.27 0-1-0.01-2-0.01-3.03 0.11-2.32 0.11-2.32 1.11-3.32z" fill="#FAFCFC"/>
<path transform="translate(515,801)" d="m0 0h16v2h2v17c-0.99-0.33-1.98-0.66-3-1-0.17-1.54-0.34-3.08-0.5-4.62-0.09-0.86-0.19-1.72-0.28-2.61-0.23-2.91-0.22-5.84-0.22-8.77-6.93-0.5-6.93-0.5-14-1v-1z" fill="#FAFCFC"/>
<path transform="translate(762,910)" d="m0 0 2 1h-3l1-1zm-4 2c2 1 2 1 2.75 2.93 0.22 0.78 0.45 1.57 0.69 2.38 1.08 3.49 2.32 5.8 4.56 8.69v4h-9l-2-4c2.31 0.33 4.62 0.66 7 1-0.33-0.6-0.66-1.2-1-1.81-1-2.19-1-2.19-1-5.19h-2c-0.98-3.05-0.98-4.95 0-8z" fill="#F7F9F9"/>
<path transform="translate(704,897)" d="m0 0c0.99 0.33 1.98 0.66 3 1v6c0.83-0.19 1.65-0.37 2.5-0.56 4.12-0.52 7.41-0.07 11.5 0.56l-1 2c-3.07 1.02-5.29 1.17-8.5 1.19-1.44 0.02-1.44 0.02-2.91 0.04-2.59-0.23-2.59-0.23-5.59-2.23-0.25-3.56-0.25-3.56 0-7l1-1z" fill="#FBFCFD"/>
<path transform="translate(702,605)" d="m0 0h2c0.86 10.8 1.02 21.2 0 32h-2v-32z" fill="#FBFCFD"/>
<path transform="translate(835,895)" d="m0 0 3 2v2h-3l-1 6c-1.98-0.66-3.96-1.32-6-2-0.69-2.31-0.69-2.31-1-5 2.07-3.34 4.26-3.47 8-3z" fill="#FCFDFD"/>
<path transform="translate(744 896)" d="m0 0c1.78 0.03 1.78 0.03 3.59 0.07 1.78 0.03 1.78 0.03 3.6 0.05 0.91 0.03 1.83 0.05 2.77 0.08l2 4h-4v-2h-8l-1 4h-2v8c-2-2-2-2-2.26-4.32 0-0.88 0.01-1.77 0.01-2.68 0-0.89-0.01-1.78-0.01-2.69 0.43-3.76 1.64-4.27 5.3-4.51z" fill="#FCFDFE"/>
<path transform="translate(538,826)" d="m0 0h1v34h-1l-1-19h-2c-0.84-4.02-1.05-7.02 0-11h2l1-4z" fill="#FBFDFD"/>
<path transform="translate(938,569)" d="m0 0h2v2l4 1c-2.5 1.57-4.86 2.94-7.62 4-2.42 1.02-3.68 2.03-5.38 4-0.99-0.33-1.98-0.66-3-1v-3h5l1-6 4 1v-2z" fill="#1A1B1D"/>
<path transform="translate(671,621)" d="m0 0h4l1 4-4-1c0.14 2.94 0.29 5.88 0.44 8.81 0.04 0.84 0.08 1.67 0.12 2.53 0.04 0.8 0.08 1.6 0.12 2.43 0.04 0.74 0.08 1.48 0.11 2.24 0.16 2.2 0.16 2.2 1.21 4.99l-4-1c-0.03-3.65-0.05-7.29-0.06-10.9-0.01-1.04-0.02-2.08-0.03-3.15 0-1.49 0-1.49-0.01-3 0-0.92-0.01-1.83-0.01-2.78 0.11-2.13 0.11-2.13 1.11-3.13z" fill="#FBFCFC"/>
<path transform="translate(781,896)" d="m0 0h4v2l4 2-2 4c-2.88 0.12-2.88 0.12-6 0l-2-2c0.56-4.56 0.56-4.56 2-6z" fill="#FCFDFE"/>
<path transform="translate(786,806)" d="m0 0 4 2v2c0.99 0.33 1.98 0.66 3 1 4.55 6.34 5.73 12.4 5 20h-2c-0.04-0.65-0.07-1.3-0.11-1.98-0.41-5.38-1.15-9.26-3.89-14v-2l-2-1-1-3c-2-1.21-2-1.21-4-2l1-1z" fill="#FAFCFC"/>
<path transform="translate(588 887)" d="m0 0c1.16 0.01 2.31 0.03 3.5 0.04 1.16 0.01 2.31 0.02 3.5 0.02 3.07 0.17 3.07 0.17 6.07 1.17v2c-10.9 0.5-10.9 0.5-22 1l4-2c2-2 2-2 4.93-2.23z" fill="#FCFDFE"/>
<path transform="translate(637 836)" d="m0 0c2.74 0.03 4.4 0.3 7.06 1.19 1.25 2.93 1.25 2.93 2 6l-1 2c-0.99-0.33-1.98-0.66-3-1 0.17-0.62 0.33-1.24 0.5-1.88 0.58-2.08 0.58-2.08 0.5-4.12l-10 2v4h-2c-0.12-2.88-0.12-2.88 0-6 2-2 2-2 5.94-2.19z" fill="#FAFCFC"/>
<path transform="translate(633,890)" d="m0 0h3c0.31 0.93 0.63 1.86 0.95 2.82 2.65 7.93 2.65 7.93 6.43 15.4 0.53 0.93 1.07 1.85 1.62 2.81l-1 3-1-3h-2c-2.96-6.92-5.73-13.8-8-21z" fill="#FAFCFC"/>
<path transform="translate(558,838)" d="m0 0c2 2 2 2 3 5 0.74-0.01 1.47-0.02 2.23-0.03 3.34-0.04 6.68-0.07 10-0.09 1.74-0.03 1.74-0.03 3.51-0.06 1.12 0 2.23-0.01 3.38-0.02 1.54-0.01 1.54-0.01 3.11-0.03 2.77 0.23 4.39 0.81 6.75 2.23l-1 2h-2v-2c-0.84 0.01-1.68 0.02-2.54 0.03-3.1 0.04-6.21 0.06-9.31 0.08-2.01 0.01-4.02 0.04-6.02 0.07-1.26 0-2.51 0.01-3.81 0.02-1.16 0.01-2.32 0.02-3.52 0.03-2.8-0.23-2.8-0.23-4.8-2.23 0.38-2.62 0.38-2.62 1-5z" fill="#FAFCFC"/>
<path transform="translate(582,823)" d="m0 0h5v16h-3c-0.06-0.99-0.12-1.97-0.18-2.99-0.09-1.28-0.17-2.56-0.26-3.89-0.08-1.27-0.16-2.55-0.24-3.86-0.11-3.14-0.11-3.14-1.32-5.26z" fill="#FAFCFC"/>
<path transform="translate(1037,897)" d="m0 0c2.06 0.44 2.06 0.44 4 1h-2l1 12h8v1c-1.44 0.08-2.87 0.14-4.31 0.19-1.2 0.05-1.2 0.05-2.43 0.1-2.26-0.29-2.26-0.29-4.04-1.48-1.63-2.42-1.55-4.04-1.47-6.93 0.02-0.89 0.03-1.78 0.05-2.7 0.2-2.18 0.2-2.18 1.2-3.18z" fill="#FAFCFC"/>
<path transform="translate(1059,913)" d="m0 0c-0.32 1.08-0.32 1.08-0.66 2.18-0.43 3.53 0.42 4.95 2.16 8.01 1.47 2.6 1.47 2.6 2.5 4.81l-1 2h-2c-0.82-1.56-1.63-3.12-2.44-4.69-0.45-0.87-0.9-1.74-1.37-2.63-1.15-2.59-1.75-4.89-2.19-7.68 3-2 3-2 5-2z" fill="#FAFCFC"/>
<path transform="translate(781,755)" d="m0 0c3 0.44 5.95 1.04 8.92 1.62 3.05 0.38 5.12 0.03 8.08-0.62 0.99 0.33 1.98 0.66 3 1v2c-3.41 1.03-6.57 1.17-10.1 1.19-1.06 0.01-2.11 0.03-3.2 0.04-2.68-0.23-2.68-0.23-4.68-2.23l-3-2 1-1z" fill="#FAFCFC"/>
<path transform="translate(538,802)" d="m0 0h1v18l-2-1-2 2-2-4h2v-10l2 1-1 6h2v-12z" fill="#FCFDFD"/>
<path transform="translate(915,701)" d="m0 0c0.05 2.63 0.09 5.25 0.12 7.88 0.02 0.74 0.04 1.49 0.06 2.26 0.01 1.95-0.08 3.91-0.18 5.86l-2 2c-1.19-3.56-1.1-6.44-1.06-10.2 0.01-1.27 0.02-2.54 0.02-3.85 0.02-0.98 0.03-1.95 0.04-2.96 2-1 2-1 3-1z" fill="#FAFCFC"/>
<path transform="translate(547,896)" d="m0 0 3 2-1 2c-0.07 1.87-0.08 3.75-0.06 5.62 0.01 1.01 0.02 2.01 0.02 3.04 0.02 0.77 0.03 1.55 0.04 2.34l-4-2c-0.05-1.79-0.09-3.58-0.12-5.38-0.03-0.99-0.05-1.99-0.08-3.02 0.2-2.6 0.2-2.6 2.2-4.6z" fill="#FAFCFC"/>
<path transform="translate(511,842)" d="m0 0h2v16h-3c-0.03-2.29-0.05-4.58-0.06-6.88-0.01-1.27-0.03-2.55-0.04-3.86 0.1-3.26 0.1-3.26 1.1-5.26z" fill="#292A2C"/>
<path transform="translate(841,824)" d="m0 0c2.71 2.47 4.51 5.21 6.44 8.31 2.46 3.94 4.96 7.84 7.56 11.7l-1 2c-2.72-2.35-3.81-4.62-5-8h-2c-0.43-1.07-0.87-2.14-1.31-3.25-0.98-2.3-1.86-3.98-3.38-6-1.31-1.75-1.31-1.75-1.31-4.75z" fill="#FAFCFC"/>
<path transform="translate(662,826)" d="m0 0c0.12 0.74 0.25 1.49 0.38 2.25 0.57 2.55 1.36 4.48 2.62 6.75h2l1 6c-2.87-1.05-3.82-1.64-5.19-4.44-0.27-0.84-0.53-1.69-0.81-2.56-0.67-3.11-0.67-3.11-3.06-4.19-0.64-0.27-1.28-0.53-1.94-0.81v-2c2-1 2-1 5-1z" fill="#FAFCFC"/>
<path transform="translate(793,683)" d="m0 0h3c-0.35 0.74-0.7 1.49-1.06 2.25-0.99 2.88-0.97 3.96 0.06 6.75h8c-1.12 1.56-1.12 1.56-3 3-3.85-0.24-5.76-0.84-9-3-0.43-4.05-0.3-5.55 2-9z" fill="#FAFCFC"/>
<path transform="translate(975,638)" d="m0 0 2 1c0.22 5.44 0.1 9.87-2 15-2.12-3.41-2.13-5.74-1.69-9.69 0.1-0.97 0.2-1.94 0.3-2.95 0.39-2.36 0.39-2.36 1.39-3.36z" fill="#FCFDFE"/>
<path transform="translate(972,508)" d="m0 0h3c0.83 6.82 1.5 12.5-1 19h-1l-1-19z" fill="#FAFCFC"/>
<path transform="translate(565,913)" d="m0 0c0.99 0.33 1.98 0.66 3 1v2h-2v3h2l4 10-5 1c0.99-0.33 1.98-0.66 3-1-0.43-0.72-0.87-1.44-1.31-2.19-0.56-0.93-1.12-1.85-1.69-2.81-0.58-0.8-1.15-1.61-1.75-2.44-1.59-3.26-1.13-5.11-0.25-8.56z" fill="#FAFCFC"/>
<path transform="translate(586,913)" d="m0 0c0.99 0.33 1.98 0.66 3 1l-1 8h16v1c-2.79 0.05-5.58 0.09-8.38 0.12-0.79 0.02-1.58 0.04-2.4 0.06-2.07 0.01-4.15-0.08-6.22-0.18-2-2-2-2-2.19-5.56 0.19-3.44 0.19-3.44 1.19-4.44z" fill="#FAFCFC"/>
<path transform="translate(625,908)" d="m0 0h2l-1 4h8l1-4 1 7h-11c-1-4-1-4 0-7z" fill="#FAFCFC"/>
<path transform="translate(904,896)" d="m0 0 4 2-1 7h11v1c-2.12 0.08-4.25 0.14-6.38 0.19-1.77 0.05-1.77 0.05-3.58 0.1-1.51-0.14-1.51-0.14-3.04-0.29-2.57-3.85-1.83-5.59-1-10z" fill="#FAFCFC"/>
<path transform="translate(588,817)" d="m0 0c-2 2-2 2-4.52 2.04-1.56-0.14-1.56-0.14-3.14-0.28-1.13-0.1-2.25-0.2-3.4-0.3-1.18-0.11-2.35-0.22-3.56-0.34-1.19-0.1-2.37-0.2-3.59-0.31-2.93-0.26-5.86-0.53-8.79-0.81v-1c2.73-0.17 5.46-0.33 8.19-0.5 0.77-0.05 1.54-0.1 2.33-0.14 11.4-0.69 11.4-0.69 16.5 1.64z" fill="#FBFDFD"/>
<path transform="translate(941,835)" d="m0 0 2 1-1 12c-0.99-0.33-1.98-0.66-3-1v-11l2-1z" fill="#FCFDFE"/>
<path transform="translate(939,808)" d="m0 0h2v14c-0.99-0.33-1.98-0.66-3-1-0.03-1.79-0.05-3.58-0.06-5.38-0.01-0.99-0.03-1.99-0.04-3.02 0.1-2.6 0.1-2.6 1.1-4.6z" fill="#FAFCFC"/>
<path transform="translate(645,587)" d="m0 0c2.31 0.33 4.62 0.66 7 1l1 5c0.99-0.33 1.98-0.66 3-1v3c-3.95-0.56-6.79-1.6-10-4-0.81-2.19-0.81-2.19-1-4z" fill="#FCFDFD"/>
<path transform="translate(1125,839)" d="m0 0h1c0.63 8.96 0.63 8.96-1.88 13.1-2.12 1.88-2.12 1.88-4.12 1.88 0.7-3.16 1.79-6.01 3-9 0.68-2 1.35-4 2-6z" fill="#FCFDFE"/>
<path transform="translate(722,907)" d="m0 0 1 4c-2.38 0.62-2.38 0.62-5 1-2-2-2-2-4-5 3.29-1.1 4.71-0.8 8 0z" fill="#292A2C"/>
<path transform="translate(691,825)" d="m0 0c-0.04 0.99-0.08 1.98-0.12 3-0.02 4.24 0.98 7.93 2.12 12h-2v-2l-2-1c-1.2-2.41-1.1-3.95-1.06-6.62 0.01-0.82 0.02-1.64 0.02-2.48 0.02-0.63 0.03-1.25 0.04-1.9 2-1 2-1 3-1z" fill="#FAFCFC"/>
<path transform="translate(767 817)" d="m0 0c1.23 0.01 1.23 0.01 2.48 0.03 0.94 0.01 0.94 0.01 1.9 0.03v2c0.99 0.33 1.98 0.66 3 1-2.77 1.38-5.05 1.1-8.13 1.06-1.1 0-2.19-0.01-3.32-0.02-1.26-0.02-1.26-0.02-2.55-0.04v-3c2.4-1.2 3.94-1.1 6.62-1.06z" fill="#FAFCFC"/>
<path transform="translate(840,700)" d="m0 0c1.94 0.62 1.94 0.62 4 2 0.75 3.12 0.75 3.12 1 6-0.99 0.33-1.98 0.66-3 1l-1 2v-6c-0.99-0.33-1.98-0.66-3-1l2-4z" fill="#292A2C"/>
<path transform="translate(922,570)" d="m0 0 2 4c-4.95 1.49-4.95 1.49-10 3v2h-3v-3c0.81-0.4 0.81-0.4 1.64-0.8 0.72-0.36 1.44-0.71 2.17-1.08 0.71-0.34 1.42-0.69 2.15-1.05 2.25-1.14 2.25-1.14 5.04-3.07z" fill="#242527"/>
<path transform="translate(947,556)" d="m0 0c1.94 0.19 1.94 0.19 4 1 1.25 2.06 1.25 2.06 2 4-1.95 1.95-3.53 2.85-6 4l1-4h-3c0.88-3.88 0.88-3.88 2-5z" fill="#2A2B2D"/>
<path transform="translate(718,922)" d="m0 0h6l2 4c-1 1-1 1-3.38 1.19-2.62-0.19-2.62-0.19-5.62-2.19l1-3z" fill="#2B2C2E"/>
<path transform="translate(704,913)" d="m0 0c0.99 0.33 1.98 0.66 3 1l-1 7 12 1v1c-2.12 0.05-4.25 0.09-6.38 0.12-1.77 0.04-1.77 0.04-3.58 0.08-3.04-0.2-3.04-0.2-5.04-2.2-0.19-3.56-0.19-3.56 0-7l1-1z" fill="#FAFCFC"/>
<path transform="translate(629,899)" d="m0 0c3.86 2.57 3.94 4.61 5 9-0.99 0.5-0.99 0.5-2 1v-2l-4-1c-0.62-1.81-0.62-1.81-1-4l2-3z" fill="#FBFDFD"/>
<path transform="translate(797,834)" d="m0 0h3c0.12 2.88 0.12 2.88 0 6l-2 2c-1.02 1.65-2.03 3.32-3 5-0.62-1.81-0.62-1.81-1-4l2-3c0.39-1.99 0.73-3.99 1-6z" fill="#FCFDFE"/>
<path transform="translate(1085,834)" d="m0 0c1.44 0.28 2.88 0.58 4.31 0.88 0.8 0.16 1.6 0.32 2.43 0.49 2.26 0.63 2.26 0.63 5.26 2.63v2c-6.75-0.88-6.75-0.88-9-2v-2h-3v-2z" fill="#FAFCFC"/>
<path transform="translate(826,638)" d="m0 0c-0.56 1.81-0.56 1.81-2 4-3.28 1.61-6.53 2.84-10 4v-3c1.43-0.84 2.87-1.67 4.31-2.5 0.8-0.46 1.6-0.93 2.43-1.41 2.26-1.09 2.26-1.09 5.26-1.09z" fill="#FCFDFD"/>
<path transform="translate(683,600)" d="m0 0h1v9c-5.08 0.62-7.83-1.38-12-4 4.18-1.39 6.13 0.18 10 2l1-7z" fill="#FAFCFC"/>
<path transform="translate(905,912)" d="m0 0 3 2-1 8-4-1c-0.12-3.38-0.12-3.38 0-7l2-2z" fill="#FAFCFC"/>
<path transform="translate(882,718)" d="m0 0c6.62-0.25 6.62-0.25 10 2v2l-11-1 1-3z" fill="#FAFCFC"/>
<path transform="translate(838,662)" d="m0 0 1 4c-2.85 0-5.22-0.44-8-1h-3v-2c3.78-1.84 5.95-2.16 10-1z" fill="#FBFCFD"/>
<path transform="translate(644,914)" d="m0 0h2c0.7 1.41 1.39 2.83 2.06 4.25 0.39 0.79 0.77 1.58 1.16 2.39 0.87 2.62 0.71 3.81-0.22 6.36-2.05-2.05-2.64-3.27-3.62-5.94-0.4-1.03-0.4-1.03-0.79-2.09-0.59-1.97-0.59-1.97-0.59-4.97z" fill="#FAFCFC"/>
<path transform="translate(955 561)" d="m0 0c0.9 0.31 0.9 0.31 1.81 0.62v3c-2.81 1.57-2.81 1.57-6 3-0.99-0.33-1.98-0.65-3-1 1.5-3.45 2.91-6.35 7.19-5.62z" fill="#1F2022"/>
<path transform="translate(679,928)" d="m0 0v1c-1.94 0.36-3.87 0.72-5.81 1.06-1.08 0.2-2.16 0.4-3.27 0.6-2.92 0.34-2.92 0.34-5.92-0.66v-2c5.23-0.76 9.77-1.21 15 0z" fill="#FAFCFC"/>
<path transform="translate(663,896)" d="m0 0h12v2h-9l-2 4-1-6z" fill="#FCFDFE"/>
<path transform="translate(631,817)" d="m0 0h3l-1 5h10l-1 2c-1.46 0.05-2.92 0.09-4.38 0.12-0.81 0.03-1.62 0.05-2.46 0.08-2.16-0.2-2.16-0.2-4.16-2.2-0.12-2.62-0.12-2.62 0-5z" fill="#FAFCFC"/>
<path transform="translate(859,890)" d="m0 0c2.48 0.5 2.48 0.5 5 1v7c-0.99 0.33-1.98 0.66-3 1-0.14-1.11-0.29-2.23-0.44-3.38-0.34-3.44-0.34-3.44-1.56-5.62z" fill="#FCFDFD"/>
<path transform="translate(659,857)" d="m0 0c-0.99 0.33-1.98 0.66-3 1v2c-2.64 1.32-4.68 1.1-7.62 1.06-1.01-0.01-2.01-0.02-3.04-0.02-0.77-0.02-1.55-0.03-2.34-0.04v-1h6l1-2c3.01-1.07 5.83-1.09 9-1z" fill="#FCFDFD"/>
<path transform="translate(960,669)" d="m0 0v2c-5.75 3-5.75 3-8 3v2l-4 1c0.26-1.86 0.26-1.86 1-4 1.74-1.27 1.74-1.27 3.88-2.25 0.69-0.34 1.39-0.67 2.11-1.02 2.01-0.73 2.01-0.73 5.01-0.73z" fill="#FBFDFD"/>
<path transform="translate(1e3 913)" d="m0 0h3l-1 9c-0.99-0.33-1.98-0.66-3-1-0.04-2.33-0.04-4.67 0-7l1-1z" fill="#FAFCFC"/>
<path transform="translate(563,902)" d="m0 0h1c-0.31 3.38-0.31 3.38-1 7-3.09 2.06-3.71 2.24-7.19 2.12-1.88-0.06-1.88-0.06-3.81-0.12v-1c1.07-0.02 2.14-0.04 3.25-0.06 3.68-0.53 3.68-0.53 5.11-2.56 0.97-1.75 1.81-3.56 2.64-5.38z" fill="#FBFDFD"/>
<path transform="translate(552,895)" d="m0 0c7.51 0.62 7.51 0.62 10 2.56 0.33 0.48 0.66 0.95 1 1.44l-1 2-2-1v-2h-9l1-3z" fill="#FAFCFC"/>
<path transform="translate(760,894)" d="m0 0 3 3-4 1 1 4c-2.62-1.05-3.79-1.65-5.25-4.12-0.25-0.62-0.5-1.24-0.75-1.88 2.48 0.5 2.48 0.5 5 1l1-3z" fill="#2A2B2D"/>
<path transform="translate(965,832)" d="m0 0c0.25 0.56 0.5 1.11 0.75 1.69 2.25 4.17 4.01 6.81 8.5 8.62 0.91 0.23 1.82 0.46 2.75 0.69-1.69 0.69-1.69 0.69-4 1-3.59-1.71-6.58-3.83-9-7 0.25-2.75 0.25-2.75 1-5z" fill="#FAFCFC"/>
<path transform="translate(697,817)" d="m0 0h8l1 4-10-1 1-3z" fill="#FAFCFC"/>
<path transform="translate(1175,801)" d="m0 0 4 1v9c-0.99-0.33-1.98-0.66-3-1l-1-9z" fill="#FAFCFC"/>
<path transform="translate(832,688)" d="m0 0c7.51-0.37 7.51-0.37 10 1.5 0.5 0.74 0.5 0.74 1 1.5h-2v2c-0.84-0.43-0.84-0.43-1.69-0.88-2.39-1.16-4.83-2.15-7.31-3.12v-1z" fill="#292A2C"/>
<path transform="translate(1088,839)" d="m0 0c8.57 0.86 8.57 0.86 12 3-6.25 1.35-6.25 1.35-9.94-0.38-0.68-0.53-1.36-1.07-2.06-1.62v-1z" fill="#FEFEFF"/>
<path transform="translate(731,837)" d="m0 0c2.06 0.44 2.06 0.44 4 1l-1 5h-2v2h-2c-0.04-2.33-0.04-4.67 0-7l1-1z" fill="#FCFDFE"/>
<path transform="translate(636,818)" d="m0 0h6l2 4h-8v-4z" fill="#FEFEFF"/>
<path transform="translate(1100,816)" d="m0 0c5.62-0.25 5.62-0.25 9 2v3c-6.75-1.62-6.75-1.62-9-5z" fill="#FAFCFC"/>
<path transform="translate(677,699)" d="m0 0c1.61 0.76 3.21 1.54 4.81 2.31 0.9 0.43 1.79 0.86 2.71 1.3 2.27 1.27 3.77 2.46 5.48 4.39h-4v-2c-0.72-0.08-1.44-0.16-2.19-0.25-3.36-0.9-5.23-2.46-7.81-4.75l1-1z" fill="#FAFCFC"/>
<path transform="translate(823,683)" d="m0 0-2 5h-5l-1-3c3.09-1.76 4.23-2 8-2z" fill="#28292B"/>
<path transform="translate(633,675)" d="m0 0c1.82 0.76 3.63 1.53 5.44 2.31 1.01 0.43 2.02 0.86 3.06 1.3 2.5 1.39 2.5 1.39 3.5 4.39-4.85-0.44-8.48-2.75-12-6v-2z" fill="#FAFCFC"/>
<path transform="translate(972,610)" d="m0 0h2c-0.69 1.88-0.69 1.88-2 4-1.64 0.72-3.31 1.39-5 2l-1 2c-0.99 0.33-1.98 0.66-3 1 0.06-1.81 0.06-1.81 1-4 2.3-1.07 4.64-2.07 7-3l1-2z" fill="#FCFDFD"/>
<path transform="translate(938,575)" d="m0 0c-0.6 0.27-1.2 0.54-1.81 0.81-2.16 1.17-3.55 2.38-5.19 4.19-0.99-0.33-1.98-0.66-3-1v-3c6.29-2.43 6.29-2.43 10-1z" fill="#3F4042"/>
</svg>
